<svg xmlns="http://www.w3.org/2000/svg" xmlns:xlink="http://www.w3.org/1999/xlink" width="1366" zoomAndPan="magnify" viewBox="0 0 1024.5 576" height="768" preserveAspectRatio="xMidYMid meet" version="1.0"><defs><clipPath id="a9f95f043c"><path d="M 430 33.449219 L 514 33.449219 L 514 82 L 430 82 Z M 430 33.449219 " clip-rule="nonzero"/></clipPath><clipPath id="69c1644c7f"><path d="M 344.191406 167 L 584 167 L 584 443 L 344.191406 443 Z M 344.191406 167 " clip-rule="nonzero"/></clipPath></defs><path fill="#73a628" d="M 419.253906 303.597656 L 411.65625 299.214844 L 524.578125 234.039062 L 532.179688 238.421875 L 419.253906 303.597656 " fill-opacity="1" fill-rule="evenodd"/><path fill="#ffffff" d="M 356.761719 252.558594 L 356.761719 434.238281 L 356.726562 433.996094 L 356.699219 433.75 L 356.683594 433.507812 L 356.679688 433.261719 L 356.679688 251.582031 L 356.683594 251.828125 L 356.699219 252.070312 L 356.726562 252.316406 L 356.761719 252.558594 " fill-opacity="1" fill-rule="evenodd"/><path fill="#6e4721" d="M 361.8125 244.402344 L 361.8125 426.082031 L 557.648438 313.117188 L 557.648438 131.441406 L 361.8125 244.402344 " fill-opacity="1" fill-rule="evenodd"/><path fill="#996633" d="M 549.773438 126.898438 L 357.253906 237.949219 L 357.226562 237.960938 L 362.199219 244.179688 L 362.214844 244.167969 L 557.648438 131.441406 L 549.773438 126.898438 " fill-opacity="1" fill-rule="evenodd"/><path fill="#e07b07" d="M 549.90625 319.6875 L 525.480469 305.597656 C 524.335938 305.085938 519.992188 303.917969 518.652344 303.644531 C 496.554688 299.164062 472.703125 310.816406 455.511719 323.757812 C 413.964844 355.03125 380.257812 416.066406 380.273438 468.363281 C 380.277344 486.3125 384.515625 506.53125 397.902344 519.457031 L 400.539062 521.804688 L 424.960938 535.890625 C 423.09375 534.230469 421.539062 532.863281 419.851562 530.957031 C 404.917969 514.078125 403.097656 487.613281 405.71875 466.269531 C 412.050781 414.6875 448.105469 355.007812 493.449219 328.871094 C 509.007812 319.902344 528.652344 313.457031 546.554688 318.578125 L 549.90625 319.6875 " fill-opacity="1" fill-rule="evenodd"/><path fill="#ffcc00" d="M 404.695312 482.453125 C 404.695312 539 444.425781 561.925781 493.445312 533.648438 C 542.464844 505.375 582.199219 436.613281 582.199219 380.0625 C 582.199219 323.515625 542.46875 300.59375 493.449219 328.871094 C 444.429688 357.144531 404.695312 425.90625 404.695312 482.453125 " fill-opacity="1" fill-rule="evenodd"/><path fill="#ffa200" d="M 414.015625 477.078125 C 414.011719 527.6875 449.574219 548.203125 493.445312 522.894531 C 537.320312 497.589844 572.878906 436.050781 572.882812 385.441406 C 572.882812 334.828125 537.320312 314.3125 493.449219 339.621094 C 449.578125 364.925781 414.015625 426.464844 414.015625 477.078125 " fill-opacity="1" fill-rule="evenodd"/><path fill="#ffa200" d="M 568.375 357.566406 L 561.972656 361.261719 L 561.972656 371.855469 L 571 366.648438 C 572.230469 372.339844 572.882812 378.617188 572.882812 385.441406 C 572.878906 436.050781 537.320312 497.589844 493.445312 522.894531 C 449.574219 548.203125 414.011719 527.6875 414.015625 477.078125 C 414.015625 426.464844 449.578125 364.925781 493.449219 339.621094 C 528.058594 319.660156 557.492188 328.21875 568.375 357.566406 " fill-opacity="1" fill-rule="evenodd"/><path fill="#ffa200" d="M 565.957031 351.96875 L 555.914062 357.765625 L 555.914062 382.34375 L 572.09375 373.011719 C 572.609375 376.925781 572.882812 381.066406 572.882812 385.441406 C 572.878906 436.050781 537.320312 497.589844 493.445312 522.894531 C 464.519531 539.585938 439.207031 536.34375 425.316406 517.691406 L 435.191406 511.996094 L 435.191406 500.539062 L 420.257812 509.152344 C 416.238281 500.507812 414.015625 489.734375 414.015625 477.078125 C 414.015625 426.464844 449.578125 364.925781 493.449219 339.621094 C 525.75 320.992188 553.542969 327.199219 565.957031 351.96875 " fill-opacity="1" fill-rule="evenodd"/><path fill="#ffa200" d="M 442.894531 454.140625 L 471.558594 437.609375 L 471.558594 496.84375 C 478.316406 496.667969 485.761719 494.34375 493.445312 489.910156 C 502.96875 484.417969 512.191406 476.085938 520.273438 465.609375 L 533.289062 448.746094 L 533.289062 445.546875 L 536.855469 436.769531 C 537.117188 436.128906 537.367188 435.492188 537.617188 434.851562 L 519.546875 445.277344 L 519.546875 365.851562 C 511.777344 364.96875 502.804688 367.210938 493.449219 372.609375 C 488.308594 375.570312 483.207031 379.390625 478.300781 383.984375 L 456.035156 404.828125 L 446.753906 434.953125 C 444.722656 441.546875 443.433594 448 442.894531 454.140625 " fill-opacity="1" fill-rule="evenodd"/><path fill="#ffa200" d="M 450.15625 442.960938 L 477.621094 427.117188 L 477.621094 488.734375 C 482.613281 488.027344 487.960938 486.082031 493.445312 482.917969 C 501.835938 478.078125 509.945312 470.753906 517.070312 461.527344 L 527.230469 448.359375 L 527.230469 447.835938 L 513.484375 455.761719 L 513.484375 373.484375 C 507.363281 373.480469 500.53125 375.511719 493.449219 379.601562 C 488.917969 382.210938 484.429688 385.574219 480.101562 389.621094 L 460.496094 407.980469 L 452.316406 434.519531 C 451.441406 437.371094 450.71875 440.191406 450.15625 442.960938 " fill-opacity="1" fill-rule="evenodd"/><path fill="#ffa200" d="M 458.84375 430.957031 L 483.683594 416.632812 L 483.683594 480.132812 C 486.835938 479.253906 490.109375 477.851562 493.445312 475.925781 C 498.273438 473.140625 502.992188 469.410156 507.421875 464.875 L 507.421875 381.523438 C 503.035156 382.097656 498.3125 383.789062 493.449219 386.59375 C 489.53125 388.851562 485.648438 391.753906 481.90625 395.257812 L 464.953125 411.128906 L 458.84375 430.957031 " fill-opacity="1" fill-rule="evenodd"/><path fill="#ffa200" d="M 468.066406 418.644531 L 489.742188 406.144531 L 489.742188 470.832031 C 490.964844 470.285156 492.199219 469.652344 493.445312 468.933594 C 496.144531 467.378906 498.796875 465.476562 501.363281 463.261719 L 501.363281 390.128906 C 498.808594 390.875 496.15625 392.023438 493.449219 393.582031 C 490.140625 395.492188 486.867188 397.9375 483.710938 400.894531 L 469.414062 414.277344 L 468.066406 418.644531 " fill-opacity="1" fill-rule="evenodd"/><path fill="#ffff66" d="M 569.609375 358.339844 L 563.695312 361.75 L 563.695312 370.363281 L 571.433594 365.898438 C 571.84375 365.664062 572.371094 365.804688 572.605469 366.21875 C 572.652344 366.296875 572.683594 366.378906 572.703125 366.464844 C 573.328125 369.359375 573.804688 372.410156 574.125 375.613281 C 574.441406 378.765625 574.601562 382.042969 574.601562 385.4375 C 574.601562 410.898438 565.664062 439.089844 551.222656 464.085938 C 536.777344 489.082031 516.804688 510.90625 494.734375 523.636719 C 481.847656 531.070312 469.652344 534.589844 458.828125 534.589844 C 450.980469 534.589844 443.855469 532.742188 437.707031 529.195312 C 431.558594 525.652344 426.398438 520.410156 422.472656 513.621094 C 417.058594 504.253906 414.015625 491.9375 414.015625 477.074219 C 414.015625 451.613281 422.949219 423.421875 437.394531 398.425781 C 451.839844 373.429688 471.808594 351.605469 493.878906 338.875 L 493.875 338.871094 C 498.734375 336.070312 503.488281 333.828125 508.105469 332.117188 C 520.792969 327.417969 532.472656 326.75 542.390625 329.679688 C 552.347656 332.617188 560.511719 339.164062 566.132812 348.894531 L 566.136719 348.890625 C 567.625 351.46875 568.933594 354.261719 570.046875 357.265625 C 570.199219 357.6875 570.003906 358.148438 569.609375 358.339844 Z M 562.402344 360.511719 L 568.171875 357.183594 C 567.148438 354.523438 565.96875 352.046875 564.644531 349.753906 L 564.644531 349.75 C 559.253906 340.417969 551.433594 334.136719 541.90625 331.328125 C 532.339844 328.507812 521.03125 329.167969 508.699219 333.734375 C 504.167969 335.414062 499.503906 337.613281 494.742188 340.363281 L 494.738281 340.363281 C 472.9375 352.9375 453.191406 374.535156 438.886719 399.289062 C 424.582031 424.039062 415.734375 451.925781 415.734375 477.074219 C 415.734375 491.628906 418.695312 503.648438 423.964844 512.765625 C 427.730469 519.28125 432.679688 524.308594 438.570312 527.707031 C 444.457031 531.105469 451.292969 532.875 458.828125 532.875 C 469.359375 532.875 481.261719 529.425781 493.875 522.148438 C 515.675781 509.574219 535.425781 487.976562 549.730469 463.222656 C 564.03125 438.472656 572.878906 410.585938 572.878906 385.4375 L 572.875 385.4375 C 572.875 382.066406 572.71875 378.84375 572.414062 375.78125 C 572.144531 373.078125 571.753906 370.476562 571.257812 367.984375 L 563.332031 372.554688 C 563.191406 372.65625 563.019531 372.714844 562.832031 372.714844 C 562.355469 372.714844 561.96875 372.328125 561.96875 371.851562 L 561.96875 361.257812 L 561.972656 361.257812 C 561.972656 360.960938 562.128906 360.667969 562.402344 360.511719 " fill-opacity="1" fill-rule="evenodd"/><path fill="#ffff66" d="M 567.234375 352.71875 L 557.632812 358.253906 L 557.632812 380.847656 L 572.523438 372.261719 C 572.933594 372.019531 573.460938 372.164062 573.699219 372.574219 C 573.765625 372.6875 573.800781 372.8125 573.816406 372.933594 C 574.074219 374.925781 574.273438 376.964844 574.402344 379.050781 C 574.53125 381.105469 574.601562 383.234375 574.601562 385.4375 C 574.601562 410.898438 565.664062 439.089844 551.222656 464.085938 C 536.777344 489.078125 516.804688 510.90625 494.734375 523.636719 L 494.738281 523.636719 C 480.375 531.921875 466.867188 535.347656 455.167969 534.453125 C 442.953125 533.519531 432.707031 527.902344 425.484375 518.199219 C 425.203125 517.820312 425.28125 517.28125 425.664062 516.996094 C 425.703125 516.96875 425.746094 516.941406 425.789062 516.921875 L 435.191406 511.496094 L 435.191406 502.023438 L 421.550781 509.894531 C 421.140625 510.132812 420.613281 509.992188 420.375 509.582031 L 420.339844 509.511719 C 418.269531 505.070312 416.675781 500.078125 415.601562 494.570312 C 414.558594 489.222656 414.015625 483.382812 414.015625 477.074219 C 414.015625 451.613281 422.949219 423.421875 437.394531 398.425781 C 451.839844 373.429688 471.808594 351.605469 493.878906 338.871094 C 495.691406 337.828125 497.488281 336.863281 499.265625 335.972656 C 513.863281 328.667969 527.421875 326.480469 538.902344 328.8125 C 550.449219 331.15625 559.875 338.046875 566.140625 348.890625 L 566.167969 348.941406 C 566.660156 349.796875 567.132812 350.679688 567.589844 351.582031 C 567.792969 351.992188 567.636719 352.496094 567.234375 352.71875 Z M 556.34375 357.015625 L 565.683594 351.628906 C 565.355469 351.003906 565.023438 350.398438 564.675781 349.796875 L 564.648438 349.753906 C 558.636719 339.347656 549.609375 332.738281 538.5625 330.496094 C 527.449219 328.242188 514.273438 330.386719 500.03125 337.511719 C 498.28125 338.386719 496.515625 339.335938 494.738281 340.363281 C 472.9375 352.9375 453.191406 374.535156 438.886719 399.289062 C 424.582031 424.039062 415.734375 451.925781 415.734375 477.074219 C 415.734375 483.257812 416.273438 488.992188 417.296875 494.246094 C 418.269531 499.261719 419.691406 503.832031 421.511719 507.929688 L 435.621094 499.789062 C 435.75 499.71875 435.898438 499.675781 436.054688 499.675781 C 436.527344 499.675781 436.914062 500.0625 436.914062 500.535156 L 436.914062 511.992188 C 436.914062 512.289062 436.761719 512.578125 436.480469 512.734375 L 427.453125 517.945312 C 434.332031 526.757812 443.917969 531.867188 455.292969 532.734375 C 466.664062 533.605469 479.828125 530.25 493.875 522.148438 C 515.675781 509.574219 535.425781 487.976562 549.730469 463.222656 C 564.03125 438.472656 572.878906 410.585938 572.878906 385.4375 C 572.878906 383.308594 572.8125 381.214844 572.683594 379.160156 C 572.582031 377.53125 572.4375 375.945312 572.261719 374.398438 L 557.253906 383.054688 C 557.117188 383.148438 556.949219 383.203125 556.769531 383.203125 C 556.292969 383.203125 555.910156 382.816406 555.910156 382.339844 L 555.910156 357.761719 L 555.914062 357.761719 C 555.914062 357.464844 556.066406 357.171875 556.34375 357.015625 " fill-opacity="1" fill-rule="evenodd"/><path fill="#ffff66" d="M 565.503906 349.714844 C 567.152344 348.75 567.71875 346.660156 566.769531 345 C 565.8125 343.351562 563.707031 342.792969 562.050781 343.738281 C 560.660156 344.550781 560.039062 346.167969 560.453125 347.648438 L 550.277344 353.515625 C 550.023438 353.660156 549.855469 353.9375 549.847656 354.230469 L 549.847656 392.828125 C 549.847656 393.535156 550.640625 393.917969 551.1875 393.550781 L 571.109375 382.058594 C 572.1875 383.152344 573.902344 383.425781 575.296875 382.628906 C 576.949219 381.664062 577.511719 379.574219 576.5625 377.917969 C 575.605469 376.265625 573.5 375.707031 571.847656 376.652344 C 570.453125 377.46875 569.832031 379.082031 570.246094 380.566406 L 551.574219 391.332031 L 551.574219 354.761719 L 561.3125 349.144531 C 562.390625 350.238281 564.105469 350.511719 565.503906 349.714844 Z M 420.578125 506.453125 C 418.941406 507.402344 416.796875 506.835938 415.859375 505.191406 C 414.90625 503.550781 415.480469 501.425781 417.121094 500.476562 C 418.5 499.679688 420.242188 499.957031 421.316406 501.046875 L 441.636719 489.328125 C 442.183594 488.957031 442.976562 489.339844 442.976562 490.046875 L 442.976562 515.523438 C 442.96875 515.8125 442.800781 516.089844 442.546875 516.234375 L 433.535156 521.429688 C 433.949219 522.914062 433.328125 524.527344 431.9375 525.34375 C 430.28125 526.289062 428.179688 525.730469 427.21875 524.078125 C 426.269531 522.417969 426.832031 520.332031 428.484375 519.367188 C 429.878906 518.566406 431.59375 518.839844 432.671875 519.9375 L 441.25 514.988281 L 441.25 491.539062 L 422.179688 502.542969 C 422.589844 504.019531 421.960938 505.65625 420.578125 506.453125 " fill-opacity="1" fill-rule="evenodd"/><path fill="#ffff66" d="M 552.292969 347.421875 C 553.65625 348.753906 555.835938 348.738281 557.175781 347.382812 C 558.515625 346.011719 558.488281 343.851562 557.136719 342.503906 C 555.949219 341.339844 554.136719 341.203125 552.804688 342.089844 C 546.410156 336.835938 538.84375 334.09375 530.398438 333.597656 C 517.515625 332.910156 504.890625 337.558594 493.875 343.886719 C 486.339844 348.234375 479.25 353.585938 472.8125 359.460938 L 472.8125 356.203125 C 472.8125 355.445312 471.898438 355.058594 471.359375 355.570312 C 465.246094 361.175781 459.632812 367.214844 454.410156 373.648438 C 443.308594 387.363281 434.097656 402.675781 427.128906 418.878906 C 424.839844 424.222656 422.800781 429.636719 421.03125 435.175781 C 420.992188 435.296875 420.980469 435.417969 420.992188 435.53125 L 420.992188 438.710938 C 420.992188 439.417969 421.785156 439.804688 422.332031 439.429688 L 423.910156 438.519531 C 420.484375 450.222656 418.375 462.359375 418.359375 474.566406 C 418.359375 481.449219 419.046875 488.425781 420.761719 495.101562 C 420.925781 495.738281 421.628906 495.902344 422.078125 495.609375 L 447.3125 481.054688 L 447.3125 518.484375 L 440.671875 522.316406 C 440.414062 522.460938 440.25 522.738281 440.238281 523.03125 C 440.230469 523.375 440.410156 523.65625 440.667969 523.808594 C 449.925781 529.167969 460.402344 529.976562 470.765625 527.992188 C 479.253906 526.335938 487.269531 522.921875 494.738281 518.625 C 508.070312 510.933594 519.875 500.195312 529.785156 488.488281 C 530.90625 487.15625 532.011719 485.8125 533.09375 484.449219 L 533.09375 487.804688 C 533.09375 488.566406 534.027344 488.957031 534.566406 488.417969 L 534.628906 488.34375 C 544.367188 476.242188 552.621094 462.863281 559.179688 448.792969 C 559.25 448.640625 559.273438 448.484375 559.257812 448.335938 L 559.257812 439.605469 C 565.554688 424.050781 569.800781 407.226562 570.226562 390.402344 C 570.234375 389.957031 570.242188 389.507812 570.25 389.058594 C 570.25 388.644531 569.976562 388.300781 569.574219 388.207031 C 569.355469 388.15625 569.136719 388.199219 568.953125 388.304688 L 547.113281 400.898438 C 546.035156 399.804688 544.320312 399.53125 542.921875 400.328125 C 541.273438 401.296875 540.707031 403.382812 541.660156 405.042969 C 542.617188 406.695312 544.71875 407.253906 546.375 406.304688 C 547.769531 405.488281 548.386719 403.875 547.976562 402.394531 L 568.492188 390.558594 C 568.058594 407.152344 563.8125 423.773438 557.605469 439.089844 C 557.558594 439.195312 557.53125 439.3125 557.53125 439.4375 L 557.53125 448.234375 C 551.402344 461.367188 543.761719 473.90625 534.820312 485.328125 L 534.820312 481.945312 C 534.820312 481.753906 534.753906 481.554688 534.625 481.398438 C 534.269531 480.972656 533.613281 480.984375 533.273438 481.421875 C 523.046875 494.660156 510.6875 506.804688 496.402344 515.621094 C 495.566406 516.136719 494.726562 516.636719 493.875 517.128906 C 487.203125 520.96875 480.125 524.074219 472.609375 525.832031 C 462.503906 528.171875 452.113281 527.890625 442.859375 523.046875 L 448.546875 519.765625 C 448.632812 519.726562 448.710938 519.667969 448.785156 519.597656 C 448.949219 519.425781 449.039062 519.226562 449.039062 518.984375 L 449.039062 479.558594 C 449.039062 478.898438 448.324219 478.480469 447.742188 478.8125 L 422.160156 493.566406 C 420.683594 487.355469 420.085938 480.945312 420.085938 474.566406 C 420.101562 461.804688 422.445312 449.132812 426.183594 436.957031 C 426.207031 436.882812 426.21875 436.804688 426.222656 436.722656 C 426.246094 436.042969 425.519531 435.605469 424.925781 435.941406 L 422.71875 437.21875 L 422.71875 435.574219 C 427.195312 421.613281 433.417969 408.238281 441.015625 395.703125 C 449.363281 381.976562 459.371094 369.199219 471.085938 358.183594 L 471.085938 361.4375 C 471.089844 361.480469 471.089844 361.527344 471.097656 361.570312 C 471.210938 362.257812 472.023438 362.539062 472.539062 362.066406 C 479.328125 355.726562 486.6875 350.03125 494.742188 345.382812 C 504.472656 339.792969 515.410156 335.558594 526.746094 335.265625 C 536.054688 335.066406 544.582031 337.59375 551.648438 343.371094 C 550.96875 344.683594 551.191406 346.320312 552.292969 347.421875 " fill-opacity="1" fill-rule="evenodd"/><path fill="#ffff66" d="M 457.691406 469.070312 C 457.691406 467.167969 456.136719 465.617188 454.238281 465.617188 C 452.335938 465.617188 450.78125 467.167969 450.78125 469.070312 C 450.78125 470.671875 451.886719 472.027344 453.371094 472.410156 L 453.371094 519.214844 C 453.371094 519.648438 453.671875 519.960938 454.027344 520.054688 L 454.03125 520.054688 C 463.964844 522.496094 474.320312 520.675781 483.703125 516.992188 C 487.523438 515.488281 491.183594 513.675781 494.738281 511.628906 C 497.023438 510.3125 499.246094 508.902344 501.421875 507.410156 C 512.929688 499.492188 522.910156 489.410156 531.4375 478.390625 L 539.15625 468.386719 L 539.15625 479.835938 C 539.15625 480.597656 540.085938 480.988281 540.625 480.449219 C 540.660156 480.414062 540.691406 480.375 540.71875 480.335938 C 545.226562 474.078125 549.359375 467.523438 553.089844 460.773438 C 553.1875 460.605469 553.214844 460.429688 553.199219 460.269531 L 553.199219 441.132812 L 554.027344 439.09375 C 559.105469 426.589844 562.699219 413.28125 563.835938 399.808594 C 563.871094 399.4375 563.644531 399.066406 563.292969 398.933594 C 563.019531 398.832031 562.742188 398.867188 562.527344 399.003906 L 539.453125 412.3125 L 539.453125 347.769531 L 541.625 346.515625 C 541.882812 346.371094 542.046875 346.09375 542.054688 345.800781 C 542.070312 345.433594 541.863281 345.136719 541.574219 344.992188 C 532.214844 340.417969 521.867188 340.542969 511.972656 343.183594 C 505.609375 344.890625 499.574219 347.601562 493.875 350.878906 C 486.375 355.199219 479.480469 360.546875 473.160156 366.445312 L 466.753906 372.445312 L 466.753906 362.058594 C 466.753906 361.292969 465.820312 360.90625 465.28125 361.441406 L 465.273438 361.457031 C 459.523438 367.3125 454.21875 373.597656 449.339844 380.195312 C 440.480469 392.199219 433.015625 405.195312 427.121094 418.898438 C 427.070312 419.019531 427.046875 419.140625 427.050781 419.261719 L 427.050781 428.222656 C 427.050781 428.929688 427.847656 429.3125 428.390625 428.941406 L 433.113281 426.222656 L 430.097656 436 C 426.941406 446.285156 424.859375 456.949219 424.484375 467.714844 C 422.964844 468.074219 421.832031 469.445312 421.832031 471.070312 C 421.832031 472.96875 423.382812 474.519531 425.285156 474.519531 C 427.1875 474.519531 428.738281 472.96875 428.738281 471.070312 C 428.738281 469.488281 427.664062 468.148438 426.210938 467.746094 C 426.582031 457.148438 428.636719 446.632812 431.75 436.511719 L 435.402344 424.644531 C 435.429688 424.570312 435.441406 424.492188 435.445312 424.410156 C 435.46875 423.730469 434.742188 423.292969 434.152344 423.628906 L 428.777344 426.730469 L 428.777344 419.417969 C 436.3125 401.941406 446.5 385.457031 458.875 370.988281 C 460.871094 368.664062 462.914062 366.402344 465.023438 364.191406 L 465.023438 374.4375 C 465.027344 374.480469 465.027344 374.523438 465.035156 374.570312 C 465.148438 375.257812 465.964844 375.535156 466.480469 375.066406 L 474.339844 367.703125 C 480.550781 361.890625 487.367188 356.632812 494.742188 352.375 C 499.847656 349.429688 505.222656 346.96875 510.882812 345.285156 C 520.257812 342.511719 530.246094 341.96875 539.316406 345.855469 L 538.214844 346.492188 C 538.132812 346.53125 538.050781 346.585938 537.980469 346.65625 C 537.816406 346.832031 537.726562 347.03125 537.726562 347.269531 L 537.726562 413.804688 C 537.730469 414.46875 538.4375 414.886719 539.019531 414.554688 L 561.964844 401.316406 C 560.703125 414.046875 557.21875 426.621094 552.425781 438.445312 L 551.542969 440.617188 C 551.496094 440.722656 551.46875 440.835938 551.46875 440.964844 L 551.46875 460.132812 C 548.222656 465.984375 544.703125 471.632812 540.882812 477.117188 L 540.882812 465.855469 C 540.882812 465.660156 540.816406 465.464844 540.683594 465.304688 C 540.328125 464.878906 539.671875 464.890625 539.335938 465.328125 L 530.070312 477.335938 C 520.605469 489.597656 509.089844 500.875 495.820312 508.984375 C 495.175781 509.375 494.527344 509.761719 493.875 510.136719 C 482.738281 516.542969 469.292969 521.21875 456.324219 518.789062 C 455.914062 518.710938 455.507812 518.625 455.101562 518.535156 L 455.101562 472.410156 C 456.589844 472.027344 457.691406 470.671875 457.691406 469.070312 " fill-opacity="1" fill-rule="evenodd"/><path fill="#ffff66" d="M 542.820312 470.589844 C 542.820312 472.488281 544.371094 474.039062 546.273438 474.039062 C 548.175781 474.039062 549.726562 472.488281 549.726562 470.589844 C 549.726562 468.984375 548.621094 467.632812 547.136719 467.25 L 547.136719 442.65625 L 548.855469 438.425781 C 552.453125 429.546875 555.179688 420.402344 556.761719 410.945312 C 556.890625 410.125 555.964844 409.695312 555.402344 410.101562 L 534.992188 421.878906 C 533.914062 420.78125 532.195312 420.507812 530.800781 421.304688 C 529.148438 422.269531 528.585938 424.359375 529.535156 426.019531 C 530.492188 427.667969 532.597656 428.226562 534.253906 427.28125 C 535.648438 426.46875 536.265625 424.851562 535.855469 423.371094 L 554.742188 412.476562 C 553.15625 421.140625 550.566406 429.617188 547.253906 437.777344 L 545.480469 442.144531 C 545.433594 442.246094 545.410156 442.363281 545.410156 442.492188 L 545.410156 467.25 C 543.921875 467.632812 542.820312 468.984375 542.820312 470.589844 Z M 524.8125 471.671875 C 525.980469 470.160156 528.140625 469.886719 529.65625 471.042969 C 531.160156 472.226562 531.445312 474.363281 530.28125 475.882812 C 529.285156 477.167969 527.574219 477.558594 526.152344 476.933594 C 517.378906 487.773438 506.828125 497.644531 494.761719 504.625 L 494.738281 504.640625 C 484.46875 510.554688 472.132812 514.832031 460.15625 512.867188 C 459.773438 512.800781 459.4375 512.476562 459.4375 512.015625 L 459.4375 460.074219 L 432.128906 475.828125 L 432.125 475.824219 C 431.792969 476.015625 431.347656 475.992188 431.042969 475.644531 C 430.925781 475.507812 430.855469 475.339844 430.835938 475.164062 C 430.585938 472.65625 430.484375 470.09375 430.484375 467.574219 C 430.484375 456.722656 432.492188 445.917969 435.660156 435.566406 L 442.335938 413.910156 L 434.453125 418.457031 C 433.910156 418.824219 433.113281 418.441406 433.113281 417.734375 L 433.113281 406.546875 C 433.097656 406.390625 433.125 406.222656 433.210938 406.058594 L 433.882812 404.769531 C 440.871094 391.613281 449.316406 379.175781 459.179688 368 L 459.222656 367.953125 C 459.757812 367.417969 460.691406 367.804688 460.691406 368.570312 L 460.691406 387.433594 L 459.828125 387.433594 L 460.417969 388.0625 C 460.300781 388.167969 460.152344 388.253906 459.996094 388.28125 C 459.378906 388.402344 458.929688 387.878906 458.964844 387.363281 L 458.964844 370.875 C 449.585938 381.800781 441.492188 393.910156 434.839844 406.664062 L 434.839844 416.238281 L 443.375 411.316406 C 443.964844 410.980469 444.691406 411.417969 444.667969 412.097656 C 444.667969 412.179688 444.652344 412.257812 444.628906 412.332031 L 437.3125 436.078125 C 434.1875 446.199219 432.210938 456.960938 432.210938 467.574219 L 432.210938 467.585938 C 432.210938 469.617188 432.285156 471.632812 432.441406 473.652344 L 459.867188 457.835938 C 460.449219 457.503906 461.15625 457.917969 461.160156 458.582031 L 461.160156 511.273438 C 472.511719 512.882812 484.160156 508.730469 493.875 503.144531 C 505.753906 496.273438 516.160156 486.535156 524.796875 475.863281 C 523.878906 474.648438 523.835938 472.945312 524.8125 471.671875 " fill-opacity="1" fill-rule="evenodd"/><path fill="#ffff66" d="M 469.8125 448.09375 C 469.8125 446.195312 468.261719 444.644531 466.359375 444.644531 C 464.457031 444.644531 462.90625 446.195312 462.90625 448.09375 C 462.90625 449.695312 464.007812 451.046875 465.496094 451.433594 L 465.496094 504.578125 C 465.496094 505.082031 465.90625 505.421875 466.339844 505.4375 C 476.289062 506.15625 486.230469 502.542969 494.738281 497.648438 L 494.761719 497.632812 C 506.558594 490.8125 516.730469 480.945312 525.023438 470.21875 L 540.894531 449.652344 C 541.015625 449.5 541.074219 449.3125 541.074219 449.128906 L 541.074219 444.183594 L 543.683594 437.757812 C 545.671875 432.855469 547.367188 427.863281 548.71875 422.75 L 548.746094 422.628906 C 548.957031 421.824219 548.039062 421.269531 547.429688 421.695312 L 527.328125 433.289062 L 527.328125 358.535156 C 527.328125 358.09375 527.015625 357.777344 526.648438 357.695312 C 518.664062 355.988281 510.390625 357.515625 502.894531 360.476562 C 499.769531 361.714844 496.789062 363.1875 493.875 364.863281 L 493.863281 364.871094 C 487.664062 368.464844 481.996094 372.828125 476.765625 377.71875 L 454.628906 398.441406 L 454.628906 375.828125 C 454.628906 375.066406 453.695312 374.675781 453.160156 375.214844 L 453.089844 375.292969 C 448.09375 381.601562 443.511719 388.242188 439.347656 395.125 L 439.316406 395.21875 L 439.296875 395.210938 C 439.1875 395.386719 439.15625 395.570312 439.171875 395.742188 L 439.171875 403.90625 C 437.6875 404.289062 436.582031 405.644531 436.582031 407.246094 C 436.582031 409.144531 438.136719 410.695312 440.035156 410.695312 C 441.9375 410.695312 443.492188 409.144531 443.492188 407.246094 C 443.492188 405.644531 442.386719 404.289062 440.902344 403.90625 L 440.902344 395.894531 C 444.578125 389.820312 448.578125 383.964844 452.902344 378.339844 L 452.902344 400.359375 C 452.867188 400.878906 453.320312 401.402344 453.933594 401.277344 C 454.089844 401.25 454.242188 401.167969 454.355469 401.0625 L 477.949219 378.976562 C 483.09375 374.167969 488.640625 369.890625 494.742188 366.359375 C 503.882812 361.097656 514.960938 357.246094 525.601562 359.246094 L 525.601562 434.78125 C 525.605469 435.445312 526.316406 435.859375 526.898438 435.53125 L 546.527344 424.207031 C 545.289062 428.582031 543.800781 432.902344 542.085938 437.109375 L 539.421875 443.671875 C 539.375 443.773438 539.347656 443.890625 539.347656 444.015625 L 539.347656 448.835938 L 523.65625 469.164062 C 515.5 479.71875 505.476562 489.449219 493.875 496.152344 C 485.90625 500.746094 476.554688 504.222656 467.222656 503.765625 L 467.222656 451.433594 C 468.707031 451.046875 469.8125 449.695312 469.8125 448.09375 " fill-opacity="1" fill-rule="evenodd"/><path fill="#ffff66" d="M 444.777344 452.558594 L 471.992188 436.859375 C 472.402344 436.625 472.929688 436.765625 473.164062 437.175781 C 473.242188 437.3125 473.28125 437.457031 473.28125 437.605469 L 473.285156 437.605469 L 473.285156 495.945312 C 476.324219 495.78125 479.511719 495.175781 482.800781 494.132812 C 486.402344 492.992188 490.113281 491.335938 493.875 489.164062 L 493.875 489.160156 C 498.597656 486.441406 503.242188 483.011719 507.707031 478.96875 C 512.164062 474.929688 516.445312 470.273438 520.453125 465.082031 L 533.289062 448.449219 L 533.289062 445.542969 C 533.289062 445.429688 533.3125 445.320312 533.351562 445.21875 L 536.757812 436.832031 L 520.835938 446.015625 C 520.425781 446.253906 519.898438 446.113281 519.660156 445.703125 C 519.582031 445.566406 519.542969 445.417969 519.542969 445.273438 L 519.542969 366.628906 C 515.949219 366.320312 512.101562 366.683594 508.078125 367.726562 C 503.796875 368.835938 499.316406 370.707031 494.738281 373.347656 L 494.742188 373.347656 C 492.183594 374.820312 489.644531 376.507812 487.136719 378.386719 C 484.648438 380.257812 482.179688 382.335938 479.75 384.609375 L 457.652344 405.300781 L 448.4375 435.203125 C 447.429688 438.472656 446.609375 441.695312 445.972656 444.855469 C 445.453125 447.453125 445.054688 450.023438 444.777344 452.558594 Z M 471.558594 439.09375 L 444.253906 454.84375 C 444.09375 454.957031 443.894531 455.015625 443.683594 455 C 443.207031 454.957031 442.855469 454.539062 442.894531 454.0625 C 443.164062 450.972656 443.628906 447.785156 444.289062 444.519531 C 444.9375 441.289062 445.769531 438.007812 446.789062 434.699219 L 456.066406 404.601562 C 456.105469 404.453125 456.1875 404.3125 456.304688 404.199219 L 478.570312 383.355469 C 481.03125 381.050781 483.550781 378.933594 486.105469 377.015625 C 488.679688 375.082031 491.277344 373.359375 493.875 371.859375 L 493.878906 371.859375 C 498.597656 369.136719 503.21875 367.207031 507.648438 366.0625 C 512.152344 364.898438 516.457031 364.539062 520.457031 364.988281 C 520.910156 365.015625 521.269531 365.390625 521.269531 365.851562 L 521.269531 443.777344 L 538.042969 434.101562 C 538.261719 433.976562 538.535156 433.949219 538.785156 434.046875 C 539.230469 434.21875 539.449219 434.714844 539.277344 435.15625 L 538.902344 436.125 L 538.515625 437.089844 L 535.011719 445.71875 L 535.011719 448.707031 C 535.019531 448.902344 534.960938 449.101562 534.832031 449.269531 L 521.816406 466.132812 C 517.753906 471.398438 513.398438 476.128906 508.859375 480.242188 C 504.296875 484.371094 499.554688 487.875 494.738281 490.652344 L 494.734375 490.652344 C 490.847656 492.894531 487.023438 494.605469 483.320312 495.777344 C 479.597656 496.957031 475.976562 497.601562 472.519531 497.699219 C 472.488281 497.699219 472.453125 497.703125 472.421875 497.703125 C 471.945312 497.703125 471.558594 497.316406 471.558594 496.839844 L 471.558594 439.09375 " fill-opacity="1" fill-rule="evenodd"/><path fill="#ffff66" d="M 452.265625 441.242188 L 478.050781 426.371094 C 478.460938 426.132812 478.988281 426.273438 479.226562 426.683594 C 479.316406 426.835938 479.351562 427 479.339844 427.164062 L 479.339844 487.726562 C 481.480469 487.355469 483.6875 486.753906 485.945312 485.921875 C 488.539062 484.972656 491.191406 483.71875 493.875 482.171875 C 498.03125 479.773438 502.113281 476.761719 506.039062 473.207031 C 509.957031 469.660156 513.722656 465.5625 517.25 460.996094 L 525.480469 450.328125 L 514.769531 456.503906 C 514.359375 456.738281 513.835938 456.597656 513.597656 456.1875 C 513.519531 456.054688 513.484375 455.90625 513.484375 455.757812 L 513.480469 455.757812 L 513.480469 374.351562 C 510.742188 374.4375 507.855469 374.9375 504.867188 375.847656 C 501.59375 376.847656 498.199219 378.34375 494.738281 380.339844 C 492.496094 381.632812 490.261719 383.113281 488.046875 384.777344 C 485.859375 386.417969 483.6875 388.246094 481.554688 390.246094 L 462.109375 408.449219 L 454 434.769531 C 453.574219 436.152344 453.179688 437.554688 452.816406 438.972656 C 452.617188 439.746094 452.4375 440.503906 452.265625 441.242188 Z M 477.621094 428.605469 L 451.449219 443.703125 C 451.273438 443.804688 451.0625 443.84375 450.847656 443.800781 C 450.382812 443.707031 450.082031 443.253906 450.171875 442.789062 C 450.46875 441.347656 450.789062 439.929688 451.144531 438.550781 C 451.5 437.15625 451.902344 435.726562 452.355469 434.261719 L 460.523438 407.75 C 460.5625 407.601562 460.644531 407.460938 460.765625 407.347656 L 480.371094 388.992188 C 482.542969 386.960938 484.765625 385.09375 487.015625 383.402344 C 489.28125 381.703125 491.574219 380.183594 493.878906 378.851562 C 497.457031 376.789062 500.972656 375.238281 504.371094 374.203125 C 507.804688 373.15625 511.125 372.628906 514.265625 372.621094 L 514.34375 372.617188 C 514.820312 372.617188 515.207031 373.003906 515.207031 373.480469 L 515.207031 454.269531 L 527.589844 447.128906 C 527.730469 447.027344 527.902344 446.96875 528.089844 446.96875 C 528.566406 446.96875 528.953125 447.355469 528.953125 447.832031 L 528.953125 448.359375 L 528.949219 448.359375 C 528.949219 448.539062 528.890625 448.726562 528.769531 448.882812 L 518.609375 462.046875 C 515.027344 466.691406 511.191406 470.859375 507.195312 474.480469 C 503.167969 478.125 498.988281 481.207031 494.738281 483.660156 C 491.960938 485.261719 489.21875 486.554688 486.539062 487.539062 C 483.828125 488.539062 481.171875 489.21875 478.597656 489.585938 C 478.5625 489.589844 478.523438 489.59375 478.480469 489.59375 C 478.007812 489.59375 477.621094 489.207031 477.621094 488.730469 L 477.621094 428.605469 " fill-opacity="1" fill-rule="evenodd"/><path fill="#ffff66" d="M 461.171875 429.113281 L 484.109375 415.882812 C 484.523438 415.644531 485.050781 415.785156 485.289062 416.195312 C 485.375 416.347656 485.414062 416.511719 485.402344 416.671875 L 485.402344 478.976562 C 486.589844 478.601562 487.800781 478.148438 489.03125 477.621094 C 490.632812 476.929688 492.246094 476.113281 493.875 475.175781 C 496.261719 473.800781 498.613281 472.195312 500.910156 470.378906 C 503.125 468.625 505.304688 466.667969 507.417969 464.523438 L 507.417969 382.519531 C 505.578125 382.828125 503.671875 383.335938 501.722656 384.042969 C 499.441406 384.871094 497.105469 385.96875 494.738281 387.332031 C 492.804688 388.449219 490.871094 389.726562 488.960938 391.164062 C 487.074219 392.578125 485.203125 394.15625 483.355469 395.878906 L 466.570312 411.597656 Z M 483.683594 418.117188 L 460.136719 431.699219 C 459.9375 431.8125 459.691406 431.851562 459.453125 431.777344 C 458.996094 431.636719 458.742188 431.15625 458.882812 430.703125 L 464.984375 410.898438 C 465.023438 410.75 465.101562 410.609375 465.222656 410.496094 L 482.175781 394.628906 C 484.054688 392.867188 485.976562 391.253906 487.929688 389.789062 C 489.894531 388.3125 491.878906 386.996094 493.878906 385.84375 C 496.34375 384.421875 498.773438 383.28125 501.136719 382.425781 C 503.523438 381.5625 505.851562 380.976562 508.097656 380.679688 C 508.15625 380.664062 508.21875 380.660156 508.28125 380.660156 C 508.761719 380.660156 509.144531 381.042969 509.144531 381.519531 L 509.144531 464.871094 C 509.144531 465.085938 509.0625 465.300781 508.898438 465.46875 C 506.664062 467.761719 504.347656 469.851562 501.976562 471.726562 C 499.601562 473.605469 497.179688 475.257812 494.738281 476.667969 C 493.039062 477.648438 491.359375 478.492188 489.710938 479.203125 C 488.046875 479.917969 486.398438 480.503906 484.769531 480.957031 C 484.699219 480.976562 484.621094 480.988281 484.542969 480.988281 C 484.066406 480.988281 483.683594 480.601562 483.683594 480.125 L 483.683594 418.117188 " fill-opacity="1" fill-rule="evenodd"/><path fill="#ffff66" d="M 470.394531 416.800781 L 490.171875 405.394531 C 490.582031 405.15625 491.113281 405.296875 491.347656 405.707031 C 491.425781 405.84375 491.464844 405.992188 491.464844 406.140625 L 491.46875 406.140625 L 491.46875 469.472656 C 491.664062 469.375 491.859375 469.277344 492.058594 469.175781 C 492.660156 468.867188 493.269531 468.535156 493.878906 468.183594 C 495.179688 467.433594 496.492188 466.585938 497.808594 465.640625 C 499.015625 464.777344 500.203125 463.851562 501.359375 462.867188 L 501.359375 391.296875 C 500.46875 391.59375 499.5625 391.945312 498.648438 392.34375 C 497.363281 392.902344 496.0625 393.5625 494.742188 394.324219 L 494.691406 394.351562 C 493.078125 395.285156 491.46875 396.351562 489.871094 397.550781 C 488.285156 398.738281 486.710938 400.0625 485.160156 401.519531 L 471.03125 414.746094 Z M 489.738281 407.628906 L 469.359375 419.386719 C 469.160156 419.503906 468.914062 419.539062 468.675781 419.464844 C 468.21875 419.324219 467.964844 418.84375 468.105469 418.390625 L 469.441406 414.046875 C 469.484375 413.898438 469.5625 413.757812 469.683594 413.644531 L 483.980469 400.265625 C 485.566406 398.777344 487.191406 397.414062 488.839844 396.175781 C 490.484375 394.941406 492.152344 393.835938 493.832031 392.863281 L 493.875 392.835938 C 495.25 392.042969 496.613281 391.355469 497.960938 390.765625 C 499.292969 390.183594 500.609375 389.703125 501.910156 389.324219 C 502.003906 389.285156 502.109375 389.265625 502.222656 389.265625 C 502.699219 389.265625 503.085938 389.652344 503.085938 390.128906 L 503.085938 463.257812 L 503.082031 463.257812 C 503.082031 463.5 502.980469 463.738281 502.785156 463.910156 C 501.46875 465.042969 500.144531 466.089844 498.8125 467.042969 C 497.488281 467.992188 496.128906 468.871094 494.734375 469.671875 C 494.097656 470.042969 493.464844 470.386719 492.839844 470.707031 C 492.222656 471.023438 491.617188 471.316406 491.019531 471.582031 C 490.894531 471.652344 490.753906 471.691406 490.601562 471.691406 C 490.125 471.691406 489.738281 471.304688 489.738281 470.828125 L 489.738281 407.628906 " fill-opacity="1" fill-rule="evenodd"/><path fill="#e07b07" d="M 476.65625 408.761719 L 464.445312 401.71875 L 467.65625 399.867188 L 479.867188 406.910156 L 476.65625 408.761719 " fill-opacity="1" fill-rule="evenodd"/><path fill="#ffcc00" d="M 479.867188 406.910156 L 467.65625 399.867188 L 467.65625 384.992188 L 479.867188 392.035156 L 479.867188 406.910156 " fill-opacity="1" fill-rule="evenodd"/><path fill="#ffcc00" d="M 503.777344 393.117188 L 491.566406 386.074219 L 491.566406 371.199219 L 503.777344 378.242188 L 503.777344 393.117188 " fill-opacity="1" fill-rule="evenodd"/><path fill="#e07b07" d="M 495.859375 397.683594 L 483.648438 390.640625 L 491.566406 386.074219 L 503.777344 393.117188 L 495.859375 397.683594 " fill-opacity="1" fill-rule="evenodd"/><path fill="#e07b07" d="M 479.867188 392.035156 L 467.65625 384.992188 L 483.648438 375.765625 L 495.859375 382.808594 L 479.867188 392.035156 " fill-opacity="1" fill-rule="evenodd"/><path fill="#e07b07" d="M 503.777344 378.242188 L 491.566406 371.199219 L 507.5625 361.972656 L 519.773438 369.015625 L 503.777344 378.242188 " fill-opacity="1" fill-rule="evenodd"/><path fill="#e07b07" d="M 519.773438 383.933594 L 507.5625 376.890625 C 511.324219 374.796875 515.894531 372.324219 519.855469 370.660156 L 532.066406 377.703125 C 528.105469 379.367188 523.535156 381.84375 519.773438 383.933594 " fill-opacity="1" fill-rule="evenodd"/><path fill="#e07b07" d="M 532.066406 377.703125 L 519.855469 370.660156 C 524.03125 368.988281 529.6875 367.566406 533.960938 369.726562 L 546.171875 376.769531 C 541.484375 374.714844 536.628906 375.875 532.066406 377.703125 " fill-opacity="1" fill-rule="evenodd"/><path fill="#e07b07" d="M 538.972656 416.007812 L 526.761719 408.964844 C 530.640625 407.859375 535.550781 407.046875 539.296875 409.058594 L 551.507812 416.105469 C 547.550781 414.128906 543.070312 414.839844 538.972656 416.007812 " fill-opacity="1" fill-rule="evenodd"/><path fill="#ffcc00" d="M 503.777344 500.480469 L 491.566406 493.4375 L 491.566406 478.480469 L 503.777344 485.523438 L 503.777344 500.480469 " fill-opacity="1" fill-rule="evenodd"/><path fill="#ffcc00" d="M 479.867188 514.273438 L 467.65625 507.230469 L 467.65625 492.273438 L 479.867188 499.316406 L 479.867188 514.273438 " fill-opacity="1" fill-rule="evenodd"/><path fill="#ffcc00" d="M 466.160156 507.222656 L 453.945312 500.179688 L 453.945312 484.789062 L 466.160156 491.832031 L 466.160156 507.222656 " fill-opacity="1" fill-rule="evenodd"/><path fill="#e07b07" d="M 466.160156 491.832031 L 453.945312 484.789062 L 464.445312 478.734375 L 476.65625 485.777344 L 466.160156 491.832031 " fill-opacity="1" fill-rule="evenodd"/><path fill="#ffcc00" d="M 476.65625 485.777344 L 464.445312 478.734375 L 464.445312 417.109375 L 476.65625 424.152344 L 476.65625 485.777344 " fill-opacity="1" fill-rule="evenodd"/><path fill="#ffcc00" d="M 466.160156 430.210938 L 453.945312 423.164062 L 453.945312 407.773438 L 466.160156 414.820312 L 466.160156 430.210938 " fill-opacity="1" fill-rule="evenodd"/><path fill="#e07b07" d="M 466.160156 414.820312 L 453.945312 407.773438 L 464.445312 401.71875 L 476.65625 408.761719 L 466.160156 414.820312 " fill-opacity="1" fill-rule="evenodd"/><path fill="#e07b07" d="M 496.101562 434.195312 L 483.890625 427.15625 C 491.851562 422.566406 500.980469 417.472656 508.671875 412.671875 C 515.035156 408.707031 521.617188 402.34375 521.296875 394.230469 C 521.214844 392.15625 520.710938 390.199219 518.765625 389.199219 L 531.828125 396.785156 C 534.523438 399.097656 533.492188 404.746094 532.320312 407.5625 C 529.984375 413.175781 525.257812 417.027344 520.238281 420.117188 C 512.554688 424.847656 503.980469 429.65625 496.101562 434.195312 " fill-opacity="1" fill-rule="evenodd"/><path fill="#e07b07" d="M 496.101562 474.335938 L 483.890625 467.289062 C 491.785156 462.738281 500.246094 457.988281 508.15625 453.226562 C 510.21875 451.984375 513.257812 450.140625 515.160156 448.695312 L 527.371094 455.738281 C 524.347656 458.039062 517.441406 462.023438 514.074219 463.96875 L 496.101562 474.335938 " fill-opacity="1" fill-rule="evenodd"/><path fill="#e07b07" d="M 527.371094 455.738281 L 515.160156 448.695312 C 518.085938 446.460938 520.28125 444.074219 522.203125 440.933594 L 534.414062 447.976562 C 532.492188 451.117188 530.296875 453.503906 527.371094 455.738281 " fill-opacity="1" fill-rule="evenodd"/><path fill="#e07b07" d="M 534.414062 447.976562 L 522.203125 440.933594 C 524.320312 437.335938 525.71875 432.363281 524.53125 428.335938 C 524.132812 426.984375 523.496094 426.023438 522.320312 425.257812 L 535.074219 432.683594 C 538.371094 435.40625 537.15625 442.332031 535.472656 445.976562 L 534.414062 447.976562 " fill-opacity="1" fill-rule="evenodd"/><path fill="#ffff66" d="M 476.65625 408.761719 L 479.867188 406.910156 L 479.867188 392.035156 L 495.859375 382.808594 L 495.859375 397.683594 L 503.777344 393.117188 L 503.777344 378.242188 L 519.773438 369.015625 L 519.773438 383.933594 C 525.058594 380.988281 529.148438 378.917969 532.066406 377.703125 C 539.601562 374.589844 545.578125 375.0625 549.480469 379.167969 C 551.445312 381.238281 552.429688 384.285156 552.429688 388.261719 C 552.429688 396.980469 547.246094 407.621094 538.972656 416.007812 C 544.808594 414.296875 549.277344 414.515625 552.429688 416.65625 C 558.367188 420.714844 558.421875 430.957031 554.082031 441.945312 C 549.824219 452.730469 542.5625 461.5 532.738281 468.195312 C 530.542969 469.679688 526.21875 472.34375 519.773438 476.175781 L 519.773438 491.253906 L 503.777344 500.480469 L 503.777344 485.523438 L 495.859375 490.089844 L 495.859375 505.046875 L 479.867188 514.273438 L 479.867188 499.316406 L 466.160156 507.222656 L 466.160156 491.832031 L 476.65625 485.777344 L 476.65625 424.152344 L 466.160156 430.210938 L 466.160156 414.820312 Z M 499.820312 410.792969 L 496.101562 412.9375 L 496.101562 434.195312 C 502.558594 430.472656 519.070312 421.058594 522.859375 418.441406 C 529.179688 414.074219 533.519531 408.066406 533.519531 401.816406 C 533.519531 395.902344 529.988281 394.382812 523.773438 397.265625 C 520.730469 398.675781 507.117188 406.550781 499.820312 410.757812 Z M 496.101562 449.554688 L 496.101562 474.335938 L 514.074219 463.96875 C 521.046875 459.945312 525.496094 457.1875 527.371094 455.738281 C 530.257812 453.558594 532.601562 450.976562 534.414062 447.976562 C 536.226562 444.953125 537.140625 441.820312 537.140625 438.53125 C 537.140625 433.050781 534.351562 430.621094 528.980469 431.921875 C 526.34375 432.5625 520.597656 435.425781 511.769531 440.519531 L 496.101562 449.554688 " fill-opacity="1" fill-rule="evenodd"/><path fill="#405e13" d="M 401.824219 260.597656 L 396.605469 257.589844 L 396.605469 79.152344 L 401.824219 82.164062 L 401.824219 260.597656 " fill-opacity="1" fill-rule="evenodd"/><path fill="#73a628" d="M 401.824219 82.164062 L 396.605469 79.152344 L 474.132812 34.40625 L 479.351562 37.414062 L 401.824219 82.164062 " fill-opacity="1" fill-rule="evenodd"/><path fill="#5d8620" d="M 479.351562 37.414062 L 479.351562 215.851562 L 401.824219 260.597656 L 401.824219 82.164062 L 479.351562 37.414062 " fill-opacity="1" fill-rule="evenodd"/><path fill="#73a628" d="M 468.351562 132.980469 C 468.351562 145.371094 455.921875 162.589844 440.589844 171.441406 C 425.253906 180.289062 412.824219 177.421875 412.824219 165.03125 C 412.824219 152.640625 425.253906 135.421875 440.589844 126.570312 C 455.921875 117.722656 468.351562 120.589844 468.351562 132.980469 Z M 471.339844 62.628906 C 465.699219 65.882812 461.082031 63.644531 461.082031 57.652344 L 420.09375 81.308594 C 420.09375 87.300781 415.476562 94.867188 409.835938 98.121094 L 409.835938 151.726562 C 415.933594 139.066406 427.421875 126.273438 440.589844 118.671875 C 453.753906 111.074219 465.242188 110.605469 471.339844 116.230469 Z M 449.3125 201.894531 C 449.3125 207.015625 445.40625 213.417969 440.589844 216.199219 C 435.769531 218.984375 431.859375 217.085938 431.859375 211.96875 C 431.859375 206.847656 435.769531 200.441406 440.589844 197.660156 C 445.40625 194.882812 449.3125 196.777344 449.3125 201.894531 Z M 449.3125 86.042969 C 449.3125 91.164062 445.40625 97.566406 440.589844 100.347656 C 435.769531 103.132812 431.859375 101.234375 431.859375 96.117188 C 431.859375 91 435.769531 84.59375 440.589844 81.8125 C 445.40625 79.03125 449.3125 80.925781 449.3125 86.042969 Z M 471.339844 146.285156 C 465.242188 158.945312 453.753906 171.738281 440.589844 179.339844 C 427.421875 186.9375 415.933594 187.40625 409.835938 181.777344 L 409.835938 235.382812 C 415.476562 232.128906 420.09375 234.367188 420.09375 240.359375 L 461.082031 216.703125 C 461.082031 210.710938 465.699219 203.144531 471.339844 199.886719 L 471.339844 146.285156 " fill-opacity="1" fill-rule="evenodd"/><path fill="#5d8620" d="M 465.617188 130.988281 L 465.617188 138.132812 L 461.90625 140.273438 C 461.492188 144.390625 460.40625 148.070312 458.636719 151.300781 C 456.328125 155.535156 453.253906 158.824219 449.398438 161.199219 L 449.109375 152.085938 C 451.253906 150.453125 452.792969 148.722656 453.730469 146.890625 C 454.109375 146.148438 454.414062 145.339844 454.640625 144.46875 L 445.332031 149.839844 C 444.496094 153.921875 443.625 157.144531 442.742188 159.503906 C 441.710938 162.257812 440.308594 164.75 438.519531 166.996094 C 436.730469 169.242188 434.53125 171.121094 431.910156 172.636719 C 429.535156 174.003906 427.300781 174.570312 425.226562 174.308594 C 423.144531 174.046875 421.601562 172.878906 420.59375 170.792969 C 419.875 169.316406 419.414062 167.355469 419.207031 164.917969 L 415.554688 167.027344 L 415.554688 159.882812 L 419.277344 157.734375 C 419.710938 153.53125 420.855469 149.707031 422.710938 146.257812 C 425.128906 141.761719 428.652344 137.878906 433.28125 134.601562 L 434.09375 143.15625 C 431.359375 145.277344 429.359375 147.519531 428.074219 149.914062 C 427.464844 151.050781 427 152.230469 426.679688 153.460938 L 438.28125 146.761719 C 439.34375 141.890625 440.613281 138.117188 442.105469 135.441406 C 444.394531 131.3125 447.1875 128.304688 450.484375 126.402344 C 452.597656 125.179688 454.585938 124.691406 456.433594 124.941406 C 458.28125 125.195312 459.679688 126.289062 460.648438 128.214844 C 461.289062 129.5 461.71875 131.128906 461.933594 133.113281 Z M 436.585938 154.886719 L 426.421875 160.753906 C 426.695312 162.027344 427.175781 162.921875 427.863281 163.429688 C 429 164.277344 430.335938 164.265625 431.859375 163.386719 C 432.847656 162.816406 433.679688 162.015625 434.371094 160.984375 C 435.0625 159.960938 435.660156 158.503906 436.164062 156.636719 C 436.277344 156.21875 436.417969 155.636719 436.585938 154.886719 Z M 447.109375 141.671875 L 454.835938 137.210938 C 454.589844 136.164062 454.1875 135.386719 453.632812 134.875 C 452.984375 134.277344 452.125 134.285156 451.042969 134.910156 C 450.058594 135.476562 449.214844 136.421875 448.519531 137.738281 C 448.058594 138.605469 447.589844 139.917969 447.109375 141.671875 " fill-opacity="1" fill-rule="evenodd"/><path fill="#405e13" d="M 435.5 259.613281 L 430.28125 256.605469 L 430.28125 78.164062 L 435.5 81.175781 L 435.5 259.613281 " fill-opacity="1" fill-rule="evenodd"/><g clip-path="url(#a9f95f043c)"><path fill="#73a628" d="M 435.5 81.175781 L 430.28125 78.164062 L 507.8125 33.421875 L 513.03125 36.433594 L 435.5 81.175781 " fill-opacity="1" fill-rule="evenodd"/></g><path fill="#5d8620" d="M 513.03125 36.433594 L 513.03125 214.867188 L 435.5 259.613281 L 435.5 81.175781 L 513.03125 36.433594 " fill-opacity="1" fill-rule="evenodd"/><path fill="#73a628" d="M 502.03125 131.996094 C 502.03125 144.386719 489.597656 161.605469 474.265625 170.457031 C 458.929688 179.308594 446.5 176.4375 446.5 164.046875 C 446.5 151.65625 458.929688 134.4375 474.265625 125.589844 C 489.597656 116.738281 502.03125 119.609375 502.03125 131.996094 Z M 505.015625 61.644531 C 499.375 64.898438 494.757812 62.664062 494.757812 56.671875 L 453.769531 80.328125 C 453.769531 86.316406 449.15625 93.882812 443.515625 97.140625 L 443.515625 150.742188 C 449.609375 138.082031 461.097656 125.289062 474.265625 117.6875 C 487.433594 110.089844 498.917969 109.625 505.015625 115.25 Z M 482.992188 200.910156 C 482.992188 206.03125 479.082031 212.433594 474.265625 215.214844 C 469.445312 218 465.539062 216.105469 465.539062 210.984375 C 465.539062 205.863281 469.445312 199.460938 474.265625 196.675781 C 479.082031 193.898438 482.992188 195.792969 482.992188 200.910156 Z M 482.992188 85.0625 C 482.992188 90.179688 479.082031 96.585938 474.265625 99.367188 C 469.445312 102.148438 465.539062 100.25 465.539062 95.132812 C 465.539062 90.015625 469.445312 83.605469 474.265625 80.832031 C 479.082031 78.046875 482.992188 79.941406 482.992188 85.0625 Z M 505.015625 145.300781 C 498.917969 157.960938 487.433594 170.753906 474.265625 178.355469 C 461.097656 185.953125 449.609375 186.421875 443.515625 180.796875 L 443.515625 234.398438 C 449.15625 231.144531 453.769531 233.382812 453.769531 239.375 L 494.757812 215.71875 C 494.757812 209.726562 499.375 202.160156 505.015625 198.902344 L 505.015625 145.300781 " fill-opacity="1" fill-rule="evenodd"/><path fill="#5d8620" d="M 499.296875 130.003906 L 499.296875 137.148438 L 495.585938 139.292969 C 495.167969 143.40625 494.082031 147.085938 492.3125 150.316406 C 490.003906 154.550781 486.933594 157.839844 483.078125 160.210938 L 482.789062 151.101562 C 484.933594 149.46875 486.46875 147.738281 487.40625 145.910156 C 487.789062 145.164062 488.089844 144.355469 488.316406 143.484375 L 479.007812 148.855469 C 478.171875 152.9375 477.304688 156.160156 476.417969 158.519531 C 475.386719 161.273438 473.984375 163.765625 472.195312 166.011719 C 470.410156 168.257812 468.207031 170.140625 465.585938 171.652344 C 463.210938 173.023438 460.980469 173.585938 458.902344 173.324219 C 456.824219 173.0625 455.277344 171.894531 454.273438 169.8125 C 453.554688 168.332031 453.089844 166.371094 452.882812 163.9375 L 449.234375 166.042969 L 449.234375 158.898438 L 452.953125 156.75 C 453.390625 152.546875 454.53125 148.722656 456.390625 145.277344 C 458.804688 140.777344 462.332031 136.894531 466.960938 133.617188 L 467.773438 142.171875 C 465.035156 144.292969 463.035156 146.535156 461.753906 148.929688 C 461.140625 150.066406 460.679688 151.246094 460.359375 152.476562 L 471.960938 145.78125 C 473.023438 140.90625 474.292969 137.132812 475.78125 134.457031 C 478.070312 130.328125 480.867188 127.320312 484.160156 125.417969 C 486.273438 124.199219 488.265625 123.710938 490.113281 123.957031 C 491.957031 124.214844 493.359375 125.304688 494.324219 127.230469 C 494.96875 128.515625 495.398438 130.144531 495.613281 132.128906 Z M 470.261719 153.902344 L 460.101562 159.769531 C 460.375 161.046875 460.855469 161.941406 461.539062 162.449219 C 462.679688 163.292969 464.011719 163.28125 465.539062 162.402344 C 466.523438 161.832031 467.355469 161.03125 468.050781 160 C 468.738281 158.976562 469.335938 157.523438 469.839844 155.652344 C 469.953125 155.234375 470.09375 154.652344 470.261719 153.902344 Z M 480.785156 140.6875 L 488.515625 136.226562 C 488.265625 135.183594 487.863281 134.402344 487.308594 133.894531 C 486.660156 133.296875 485.800781 133.300781 484.71875 133.925781 C 483.734375 134.496094 482.890625 135.4375 482.195312 136.757812 C 481.734375 137.621094 481.265625 138.933594 480.785156 140.6875 " fill-opacity="1" fill-rule="evenodd"/><path fill="#405e13" d="M 379.3125 294.121094 L 374.097656 291.113281 L 374.097656 112.671875 L 379.3125 115.683594 L 379.3125 294.121094 " fill-opacity="1" fill-rule="evenodd"/><path fill="#73a628" d="M 379.3125 115.683594 L 374.097656 112.671875 L 451.625 67.929688 L 456.84375 70.9375 L 379.3125 115.683594 " fill-opacity="1" fill-rule="evenodd"/><path fill="#5d8620" d="M 456.84375 70.9375 L 456.84375 249.375 L 379.3125 294.121094 L 379.3125 115.683594 L 456.84375 70.9375 " fill-opacity="1" fill-rule="evenodd"/><path fill="#73a628" d="M 445.839844 166.503906 C 445.839844 178.894531 433.410156 196.113281 418.078125 204.964844 C 402.742188 213.816406 390.3125 210.945312 390.3125 198.554688 C 390.3125 186.164062 402.742188 168.945312 418.078125 160.09375 C 433.410156 151.246094 445.839844 154.113281 445.839844 166.503906 Z M 448.828125 96.152344 C 443.1875 99.40625 438.570312 97.171875 438.570312 91.175781 L 397.582031 114.832031 C 397.582031 120.824219 392.96875 128.390625 387.328125 131.648438 L 387.328125 185.25 C 393.421875 172.589844 404.910156 159.796875 418.078125 152.195312 C 431.246094 144.597656 442.734375 144.128906 448.828125 149.753906 Z M 426.804688 235.417969 C 426.804688 240.539062 422.894531 246.941406 418.078125 249.722656 C 413.257812 252.507812 409.351562 250.613281 409.351562 245.492188 C 409.351562 240.371094 413.257812 233.96875 418.078125 231.183594 C 422.894531 228.402344 426.804688 230.296875 426.804688 235.417969 Z M 426.804688 119.566406 C 426.804688 124.6875 422.894531 131.09375 418.078125 133.875 C 413.257812 136.65625 409.351562 134.761719 409.351562 129.640625 C 409.351562 124.523438 413.257812 118.117188 418.078125 115.335938 C 422.894531 112.554688 426.804688 114.449219 426.804688 119.566406 Z M 448.828125 179.808594 C 442.734375 192.46875 431.246094 205.261719 418.078125 212.863281 C 404.910156 220.460938 393.421875 220.929688 387.328125 215.304688 L 387.328125 268.910156 C 392.96875 265.652344 397.582031 267.890625 397.582031 273.882812 L 438.570312 250.226562 C 438.570312 244.234375 443.1875 236.667969 448.828125 233.410156 L 448.828125 179.808594 " fill-opacity="1" fill-rule="evenodd"/><path fill="#5d8620" d="M 443.109375 164.511719 L 443.109375 171.65625 L 439.394531 173.796875 C 438.984375 177.914062 437.894531 181.59375 436.125 184.824219 C 433.816406 189.058594 430.746094 192.34375 426.890625 194.71875 L 426.601562 185.609375 C 428.742188 183.976562 430.28125 182.246094 431.21875 180.417969 C 431.601562 179.671875 431.90625 178.863281 432.132812 177.988281 L 422.820312 183.363281 C 421.984375 187.441406 421.117188 190.667969 420.230469 193.027344 C 419.199219 195.777344 417.796875 198.273438 416.011719 200.519531 C 414.222656 202.765625 412.019531 204.648438 409.398438 206.160156 C 407.023438 207.53125 404.789062 208.09375 402.714844 207.832031 C 400.636719 207.570312 399.089844 206.402344 398.085938 204.316406 C 397.363281 202.839844 396.902344 200.878906 396.695312 198.441406 L 393.046875 200.550781 L 393.046875 193.402344 L 396.765625 191.257812 C 397.203125 187.054688 398.34375 183.230469 400.203125 179.78125 C 402.617188 175.285156 406.144531 171.402344 410.773438 168.125 L 411.585938 176.679688 C 408.847656 178.800781 406.847656 181.042969 405.566406 183.4375 C 404.953125 184.574219 404.492188 185.753906 404.171875 186.984375 L 415.773438 180.289062 C 416.835938 175.414062 418.105469 171.640625 419.59375 168.960938 C 421.882812 164.835938 424.679688 161.828125 427.972656 159.925781 C 430.085938 158.707031 432.078125 158.21875 433.925781 158.464844 C 435.769531 158.722656 437.171875 159.8125 438.136719 161.738281 C 438.78125 163.023438 439.210938 164.652344 439.425781 166.636719 Z M 414.074219 188.410156 L 403.914062 194.277344 C 404.1875 195.554688 404.667969 196.449219 405.351562 196.957031 C 406.492188 197.800781 407.824219 197.789062 409.351562 196.910156 C 410.335938 196.339844 411.167969 195.539062 411.863281 194.507812 C 412.550781 193.484375 413.152344 192.027344 413.652344 190.160156 C 413.765625 189.742188 413.90625 189.160156 414.074219 188.410156 Z M 424.597656 175.191406 L 432.328125 170.734375 C 432.078125 169.6875 431.679688 168.910156 431.121094 168.398438 C 430.472656 167.804688 429.613281 167.808594 428.53125 168.433594 C 427.546875 169.003906 426.707031 169.945312 426.011719 171.265625 C 425.546875 172.128906 425.078125 173.4375 424.597656 175.191406 " fill-opacity="1" fill-rule="evenodd"/><path fill="#405e13" d="M 448.777344 269.828125 L 443.5625 266.816406 L 443.5625 88.382812 L 448.777344 91.386719 L 448.777344 269.828125 " fill-opacity="1" fill-rule="evenodd"/><path fill="#73a628" d="M 448.777344 91.386719 L 443.5625 88.382812 L 521.089844 43.632812 L 526.304688 46.640625 L 448.777344 91.386719 " fill-opacity="1" fill-rule="evenodd"/><path fill="#5d8620" d="M 526.304688 46.640625 L 526.304688 225.082031 L 448.777344 269.824219 L 448.777344 91.386719 L 526.304688 46.640625 " fill-opacity="1" fill-rule="evenodd"/><path fill="#73a628" d="M 515.308594 142.207031 C 515.308594 154.597656 502.878906 171.816406 487.542969 180.667969 C 472.207031 189.519531 459.777344 186.648438 459.777344 174.257812 C 459.777344 161.867188 472.207031 144.648438 487.542969 135.800781 C 502.878906 126.949219 515.308594 129.816406 515.308594 142.207031 Z M 518.292969 71.851562 C 512.652344 75.109375 508.039062 72.871094 508.039062 66.878906 L 467.046875 90.535156 C 467.046875 96.527344 462.433594 104.097656 456.792969 107.351562 L 456.792969 160.957031 C 462.890625 148.292969 474.375 135.503906 487.542969 127.902344 C 500.710938 120.300781 512.195312 119.835938 518.292969 125.460938 Z M 496.269531 211.125 C 496.269531 216.242188 492.363281 222.648438 487.542969 225.429688 C 482.722656 228.210938 478.816406 226.316406 478.816406 221.195312 C 478.816406 216.074219 482.722656 209.671875 487.542969 206.890625 C 492.363281 204.109375 496.269531 206.003906 496.269531 211.125 Z M 496.269531 95.273438 C 496.269531 100.390625 492.363281 106.796875 487.542969 109.578125 C 482.722656 112.359375 478.816406 110.464844 478.816406 105.34375 C 478.816406 100.226562 482.722656 93.820312 487.542969 91.039062 C 492.363281 88.257812 496.269531 90.15625 496.269531 95.273438 Z M 518.292969 155.511719 C 512.195312 168.175781 500.710938 180.96875 487.542969 188.566406 C 474.375 196.167969 462.890625 196.632812 456.792969 191.007812 L 456.792969 244.613281 C 462.433594 241.355469 467.046875 243.59375 467.046875 249.589844 L 508.039062 225.929688 C 508.039062 219.9375 512.652344 212.371094 518.292969 209.117188 L 518.292969 155.511719 " fill-opacity="1" fill-rule="evenodd"/><path fill="#5d8620" d="M 512.574219 140.214844 L 512.574219 147.359375 L 508.859375 149.5 C 508.449219 153.617188 507.359375 157.296875 505.59375 160.527344 C 503.285156 164.761719 500.210938 168.050781 496.355469 170.425781 L 496.066406 161.3125 C 498.210938 159.683594 499.746094 157.953125 500.683594 156.121094 C 501.066406 155.375 501.371094 154.566406 501.597656 153.695312 L 492.289062 159.070312 C 491.453125 163.148438 490.582031 166.371094 489.699219 168.730469 C 488.664062 171.484375 487.261719 173.976562 485.476562 176.226562 C 483.6875 178.472656 481.484375 180.351562 478.867188 181.863281 C 476.488281 183.234375 474.257812 183.796875 472.179688 183.535156 C 470.101562 183.273438 468.554688 182.105469 467.550781 180.019531 C 466.832031 178.542969 466.367188 176.582031 466.160156 174.148438 L 462.511719 176.253906 L 462.511719 169.109375 L 466.234375 166.960938 C 466.667969 162.757812 467.808594 158.933594 469.667969 155.488281 C 472.082031 150.988281 475.609375 147.109375 480.238281 143.828125 L 481.050781 152.382812 C 478.316406 154.503906 476.316406 156.75 475.03125 159.140625 C 474.421875 160.277344 473.957031 161.460938 473.636719 162.6875 L 485.238281 155.992188 C 486.300781 151.117188 487.570312 147.34375 489.058594 144.667969 C 491.347656 140.539062 494.140625 137.535156 497.4375 135.628906 C 499.554688 134.410156 501.542969 133.921875 503.390625 134.167969 C 505.234375 134.425781 506.636719 135.515625 507.601562 137.441406 C 508.246094 138.726562 508.675781 140.355469 508.890625 142.339844 Z M 483.542969 164.117188 L 473.378906 169.980469 C 473.652344 171.257812 474.132812 172.152344 474.816406 172.660156 C 475.957031 173.503906 477.289062 173.492188 478.816406 172.613281 C 479.804688 172.042969 480.632812 171.242188 481.328125 170.210938 C 482.015625 169.1875 482.613281 167.734375 483.117188 165.863281 C 483.230469 165.445312 483.375 164.863281 483.542969 164.117188 Z M 494.066406 150.898438 L 501.792969 146.4375 C 501.542969 145.394531 501.140625 144.617188 500.585938 144.105469 C 499.941406 143.507812 499.078125 143.511719 497.996094 144.136719 C 497.011719 144.707031 496.171875 145.648438 495.476562 146.96875 C 495.011719 147.835938 494.542969 149.140625 494.066406 150.898438 " fill-opacity="1" fill-rule="evenodd"/><path fill="#405e13" d="M 477.148438 265.777344 L 471.933594 262.765625 L 471.933594 84.328125 L 477.148438 87.339844 L 477.148438 265.777344 " fill-opacity="1" fill-rule="evenodd"/><path fill="#73a628" d="M 477.148438 87.339844 L 471.933594 84.328125 L 549.460938 39.585938 L 554.675781 42.59375 L 477.148438 87.339844 " fill-opacity="1" fill-rule="evenodd"/><path fill="#5d8620" d="M 554.675781 42.59375 L 554.675781 221.03125 L 477.148438 265.777344 L 477.148438 87.339844 L 554.675781 42.59375 " fill-opacity="1" fill-rule="evenodd"/><path fill="#73a628" d="M 543.679688 138.160156 C 543.679688 150.550781 531.246094 167.769531 515.914062 176.621094 C 500.578125 185.46875 488.148438 182.597656 488.148438 170.210938 C 488.148438 157.820312 500.578125 140.601562 515.914062 131.75 C 531.246094 122.902344 543.679688 125.769531 543.679688 138.160156 Z M 546.664062 67.808594 C 541.023438 71.0625 536.40625 68.824219 536.40625 62.832031 L 495.417969 86.488281 C 495.417969 92.480469 490.804688 100.046875 485.164062 103.304688 L 485.164062 156.90625 C 491.257812 144.242188 502.746094 131.453125 515.914062 123.851562 C 529.082031 116.253906 540.570312 115.785156 546.664062 121.410156 Z M 524.640625 207.074219 C 524.640625 212.195312 520.730469 218.597656 515.914062 221.378906 C 511.09375 224.160156 507.1875 222.265625 507.1875 217.148438 C 507.1875 212.027344 511.09375 205.621094 515.914062 202.839844 C 520.730469 200.058594 524.640625 201.957031 524.640625 207.074219 Z M 524.640625 91.222656 C 524.640625 96.339844 520.730469 102.746094 515.914062 105.527344 C 511.09375 108.308594 507.1875 106.414062 507.1875 101.296875 C 507.1875 96.179688 511.09375 89.773438 515.914062 86.992188 C 520.730469 84.207031 524.640625 86.101562 524.640625 91.222656 Z M 546.664062 151.460938 C 540.570312 164.125 529.082031 176.917969 515.914062 184.519531 C 502.746094 192.117188 491.257812 192.585938 485.164062 186.957031 L 485.164062 240.5625 C 490.804688 237.304688 495.417969 239.546875 495.417969 245.539062 L 536.40625 221.882812 C 536.40625 215.890625 541.023438 208.324219 546.664062 205.066406 L 546.664062 151.460938 " fill-opacity="1" fill-rule="evenodd"/><path fill="#5d8620" d="M 540.945312 136.167969 L 540.945312 143.3125 L 537.230469 145.453125 C 536.820312 149.570312 535.730469 153.246094 533.964844 156.480469 C 531.652344 160.714844 528.582031 164.003906 524.726562 166.375 L 524.4375 157.265625 C 526.578125 155.632812 528.117188 153.902344 529.054688 152.070312 C 529.433594 151.328125 529.742188 150.515625 529.96875 149.648438 L 520.65625 155.019531 C 519.820312 159.101562 518.953125 162.324219 518.070312 164.683594 C 517.035156 167.433594 515.632812 169.925781 513.847656 172.175781 C 512.058594 174.421875 509.855469 176.300781 507.234375 177.8125 C 504.859375 179.183594 502.625 179.746094 500.550781 179.488281 C 498.472656 179.226562 496.925781 178.058594 495.921875 175.972656 C 495.203125 174.496094 494.738281 172.535156 494.53125 170.097656 L 490.882812 172.203125 L 490.882812 165.058594 L 494.605469 162.910156 C 495.035156 158.710938 496.179688 154.886719 498.039062 151.4375 C 500.453125 146.941406 503.980469 143.058594 508.609375 139.78125 L 509.417969 148.335938 C 506.6875 150.457031 504.6875 152.699219 503.402344 155.09375 C 502.792969 156.230469 502.328125 157.410156 502.007812 158.636719 L 513.609375 151.941406 C 514.671875 147.070312 515.941406 143.292969 517.429688 140.621094 C 519.71875 136.492188 522.511719 133.484375 525.808594 131.582031 C 527.925781 130.359375 529.914062 129.871094 531.761719 130.121094 C 533.605469 130.375 535.007812 131.464844 535.972656 133.390625 C 536.617188 134.675781 537.046875 136.308594 537.261719 138.292969 Z M 511.910156 160.066406 L 501.75 165.933594 C 502.023438 167.207031 502.503906 168.101562 503.1875 168.609375 C 504.328125 169.457031 505.660156 169.445312 507.1875 168.5625 C 508.171875 167.996094 509.003906 167.195312 509.699219 166.164062 C 510.386719 165.140625 510.984375 163.683594 511.488281 161.816406 C 511.601562 161.394531 511.742188 160.8125 511.910156 160.066406 Z M 522.433594 146.847656 L 530.164062 142.386719 C 529.917969 141.34375 529.515625 140.566406 528.957031 140.054688 C 528.3125 139.457031 527.449219 139.464844 526.367188 140.089844 C 525.382812 140.65625 524.542969 141.601562 523.847656 142.917969 C 523.382812 143.785156 522.914062 145.09375 522.433594 146.847656 " fill-opacity="1" fill-rule="evenodd"/><path fill="#405e13" d="M 392.535156 317.332031 L 387.316406 314.324219 L 387.316406 135.886719 L 392.535156 138.894531 L 392.535156 317.332031 " fill-opacity="1" fill-rule="evenodd"/><path fill="#73a628" d="M 392.535156 138.894531 L 387.316406 135.886719 L 464.847656 91.136719 L 470.0625 94.152344 L 392.535156 138.894531 " fill-opacity="1" fill-rule="evenodd"/><path fill="#5d8620" d="M 470.0625 94.152344 L 470.0625 272.585938 L 392.535156 317.332031 L 392.535156 138.894531 L 470.0625 94.152344 " fill-opacity="1" fill-rule="evenodd"/><path fill="#73a628" d="M 459.0625 189.714844 C 459.0625 202.105469 446.632812 219.324219 431.296875 228.175781 C 415.964844 237.023438 403.535156 234.15625 403.535156 221.765625 C 403.535156 209.375 415.964844 192.15625 431.296875 183.304688 C 446.632812 174.457031 459.0625 177.324219 459.0625 189.714844 Z M 462.050781 119.363281 C 456.410156 122.621094 451.792969 120.378906 451.792969 114.386719 L 410.804688 138.042969 C 410.804688 144.035156 406.1875 151.601562 400.546875 154.859375 L 400.546875 208.464844 C 406.644531 195.800781 418.132812 183.007812 431.296875 175.40625 C 444.464844 167.808594 455.953125 167.339844 462.050781 172.96875 Z M 440.027344 258.628906 C 440.027344 263.75 436.117188 270.15625 431.296875 272.933594 C 426.480469 275.714844 422.570312 273.820312 422.570312 268.703125 C 422.570312 263.582031 426.480469 257.175781 431.296875 254.398438 C 436.117188 251.617188 440.027344 253.511719 440.027344 258.628906 Z M 440.027344 142.777344 C 440.027344 147.898438 436.117188 154.304688 431.296875 157.085938 C 426.480469 159.867188 422.570312 157.96875 422.570312 152.851562 C 422.570312 147.730469 426.480469 141.328125 431.296875 138.546875 C 436.117188 135.765625 440.027344 137.660156 440.027344 142.777344 Z M 462.050781 203.019531 C 455.953125 215.683594 444.464844 228.472656 431.296875 236.074219 C 418.132812 243.671875 406.644531 244.140625 400.546875 238.515625 L 400.546875 292.117188 C 406.1875 288.863281 410.804688 291.101562 410.804688 297.09375 L 451.792969 273.4375 C 451.792969 267.445312 456.410156 259.878906 462.050781 256.621094 L 462.050781 203.019531 " fill-opacity="1" fill-rule="evenodd"/><path fill="#5d8620" d="M 456.332031 187.722656 L 456.332031 194.867188 L 452.617188 197.007812 C 452.203125 201.125 451.117188 204.800781 449.347656 208.035156 C 447.039062 212.269531 443.96875 215.558594 440.109375 217.933594 L 439.820312 208.820312 C 441.964844 207.1875 443.503906 205.460938 444.441406 203.625 C 444.820312 202.882812 445.125 202.074219 445.351562 201.203125 L 436.042969 206.578125 C 435.207031 210.65625 434.339844 213.878906 433.453125 216.238281 C 432.421875 218.992188 431.019531 221.484375 429.230469 223.734375 C 427.441406 225.980469 425.242188 227.859375 422.621094 229.371094 C 420.246094 230.742188 418.011719 231.304688 415.9375 231.042969 C 413.859375 230.78125 412.3125 229.617188 411.304688 227.527344 C 410.585938 226.050781 410.125 224.089844 409.917969 221.65625 L 406.265625 223.761719 L 406.265625 216.617188 L 409.988281 214.46875 C 410.421875 210.265625 411.566406 206.441406 413.421875 202.992188 C 415.839844 198.496094 419.363281 194.617188 423.992188 191.335938 L 424.804688 199.890625 C 422.070312 202.011719 420.070312 204.253906 418.785156 206.648438 C 418.175781 207.785156 417.710938 208.96875 417.390625 210.195312 L 428.992188 203.5 C 430.054688 198.625 431.328125 194.851562 432.816406 192.175781 C 435.105469 188.046875 437.898438 185.039062 441.191406 183.136719 C 443.308594 181.914062 445.300781 181.429688 447.144531 181.675781 C 448.992188 181.933594 450.390625 183.023438 451.359375 184.949219 C 452 186.234375 452.433594 187.863281 452.648438 189.847656 Z M 427.296875 211.625 L 417.132812 217.488281 C 417.40625 218.765625 417.886719 219.65625 418.574219 220.167969 C 419.710938 221.015625 421.046875 221 422.570312 220.121094 C 423.558594 219.550781 424.390625 218.753906 425.085938 217.71875 C 425.773438 216.695312 426.371094 215.238281 426.875 213.371094 C 426.988281 212.953125 427.128906 212.371094 427.296875 211.625 Z M 437.820312 198.40625 L 445.546875 193.945312 C 445.300781 192.898438 444.898438 192.121094 444.34375 191.613281 C 443.695312 191.011719 442.835938 191.019531 441.753906 191.644531 C 440.769531 192.210938 439.925781 193.15625 439.230469 194.476562 C 438.769531 195.339844 438.296875 196.648438 437.820312 198.40625 " fill-opacity="1" fill-rule="evenodd"/><path fill="#405e13" d="M 431.324219 309.480469 L 426.109375 306.472656 L 426.109375 128.035156 L 431.324219 131.042969 L 431.324219 309.480469 " fill-opacity="1" fill-rule="evenodd"/><path fill="#73a628" d="M 431.324219 131.042969 L 426.109375 128.035156 L 503.636719 83.289062 L 508.851562 86.296875 L 431.324219 131.042969 " fill-opacity="1" fill-rule="evenodd"/><path fill="#5d8620" d="M 508.851562 86.296875 L 508.851562 264.734375 L 431.324219 309.480469 L 431.324219 131.042969 L 508.851562 86.296875 " fill-opacity="1" fill-rule="evenodd"/><path fill="#73a628" d="M 497.855469 181.867188 C 497.855469 194.257812 485.421875 211.476562 470.089844 220.324219 C 454.753906 229.175781 442.324219 226.304688 442.324219 213.914062 C 442.324219 201.523438 454.753906 184.308594 470.089844 175.457031 C 485.421875 166.605469 497.855469 169.476562 497.855469 181.867188 Z M 500.839844 111.511719 C 495.199219 114.765625 490.582031 112.527344 490.582031 106.535156 L 449.59375 130.195312 C 449.59375 136.183594 444.980469 143.753906 439.339844 147.007812 L 439.339844 200.613281 C 445.433594 187.949219 456.921875 175.15625 470.089844 167.554688 C 483.257812 159.957031 494.742188 159.492188 500.839844 165.117188 Z M 478.8125 250.78125 C 478.8125 255.898438 474.910156 262.300781 470.089844 265.085938 C 465.269531 267.867188 461.363281 265.972656 461.363281 260.851562 C 461.363281 255.734375 465.269531 249.328125 470.089844 246.546875 C 474.910156 243.765625 478.8125 245.660156 478.8125 250.78125 Z M 478.8125 134.929688 C 478.8125 140.046875 474.910156 146.453125 470.089844 149.234375 C 465.269531 152.015625 461.363281 150.121094 461.363281 145 C 461.363281 139.882812 465.269531 133.476562 470.089844 130.695312 C 474.910156 127.914062 478.8125 129.808594 478.8125 134.929688 Z M 500.839844 195.167969 C 494.742188 207.832031 483.257812 220.625 470.089844 228.222656 C 456.921875 235.824219 445.433594 236.289062 439.339844 230.664062 L 439.339844 284.265625 C 444.980469 281.011719 449.59375 283.253906 449.59375 289.242188 L 490.582031 265.585938 C 490.582031 259.59375 495.199219 252.027344 500.839844 248.773438 L 500.839844 195.167969 " fill-opacity="1" fill-rule="evenodd"/><path fill="#5d8620" d="M 495.121094 179.871094 L 495.121094 187.015625 L 491.40625 189.160156 C 490.996094 193.273438 489.90625 196.953125 488.140625 200.183594 C 485.828125 204.417969 482.753906 207.707031 478.902344 210.082031 L 478.609375 200.972656 C 480.757812 199.335938 482.292969 197.609375 483.230469 195.777344 C 483.613281 195.03125 483.917969 194.222656 484.144531 193.351562 L 474.835938 198.722656 C 473.996094 202.804688 473.128906 206.03125 472.246094 208.386719 C 471.210938 211.140625 469.808594 213.632812 468.019531 215.878906 C 466.234375 218.128906 464.03125 220.007812 461.410156 221.519531 C 459.035156 222.890625 456.804688 223.453125 454.722656 223.191406 C 452.648438 222.929688 451.101562 221.765625 450.097656 219.679688 C 449.378906 218.199219 448.914062 216.242188 448.707031 213.804688 L 445.058594 215.910156 L 445.058594 208.765625 L 448.78125 206.617188 C 449.210938 202.414062 450.355469 198.59375 452.210938 195.144531 C 454.628906 190.644531 458.15625 186.765625 462.785156 183.488281 L 463.59375 192.039062 C 460.863281 194.160156 458.859375 196.402344 457.574219 198.800781 C 456.964844 199.933594 456.503906 201.117188 456.183594 202.34375 L 467.785156 195.648438 C 468.847656 190.773438 470.117188 187 471.605469 184.324219 C 473.894531 180.199219 476.6875 177.1875 479.984375 175.289062 C 482.101562 174.066406 484.089844 173.578125 485.933594 173.824219 C 487.78125 174.082031 489.183594 175.171875 490.148438 177.101562 C 490.792969 178.382812 491.222656 180.011719 491.4375 181.996094 Z M 466.089844 203.773438 L 455.925781 209.636719 C 456.199219 210.914062 456.675781 211.808594 457.363281 212.316406 C 458.503906 213.164062 459.835938 213.148438 461.363281 212.269531 C 462.351562 211.699219 463.179688 210.898438 463.875 209.871094 C 464.5625 208.84375 465.160156 207.390625 465.664062 205.523438 C 465.777344 205.101562 465.917969 204.519531 466.089844 203.773438 Z M 476.609375 190.554688 L 484.339844 186.09375 C 484.089844 185.050781 483.6875 184.269531 483.132812 183.761719 C 482.488281 183.164062 481.625 183.167969 480.542969 183.792969 C 479.558594 184.363281 478.71875 185.308594 478.023438 186.625 C 477.558594 187.488281 477.089844 188.800781 476.609375 190.554688 " fill-opacity="1" fill-rule="evenodd"/><path fill="#825528" d="M 394.589844 263.308594 L 394.589844 444.988281 L 590.425781 332.023438 L 590.425781 150.347656 L 394.589844 263.308594 " fill-opacity="1" fill-rule="evenodd"/><path fill="#573818" d="M 356.644531 250.3125 L 356.644531 434.640625 C 356.714844 431.277344 359.121094 428.964844 361.847656 427.355469 L 361.847656 243.023438 C 359.121094 244.636719 356.714844 246.945312 356.644531 250.3125 " fill-opacity="1" fill-rule="evenodd"/><path fill="#6e4721" d="M 374.261719 449.828125 C 381.335938 449.78125 388.371094 448.484375 394.589844 444.988281 L 394.589844 262.925781 C 383.726562 269.035156 367.355469 269.34375 356.113281 264.0625 C 351.382812 261.835938 346.6875 258.214844 345.675781 252.792969 L 345.675781 434.855469 C 345.820312 436.421875 346.949219 438.59375 347.914062 439.882812 C 353.171875 446.890625 364.515625 449.578125 372.882812 449.808594 L 374.261719 449.828125 " fill-opacity="1" fill-rule="evenodd"/><g clip-path="url(#69c1644c7f)"><path fill="#573818" d="M 347.0625 426.09375 C 346.953125 424.984375 345.675781 424.441406 344.800781 425.136719 C 344.4375 425.4375 344.25 425.875 344.292969 426.347656 C 344.472656 428.238281 345.671875 430.566406 346.800781 432.082031 C 348.621094 434.492188 350.957031 436.332031 353.589844 437.792969 C 354.742188 438.425781 356.046875 437.265625 355.554688 436.046875 C 355.429688 435.75 355.226562 435.523438 354.945312 435.363281 C 352.660156 434.097656 350.609375 432.503906 349.027344 430.414062 C 348.234375 429.363281 347.1875 427.40625 347.0625 426.09375 Z M 347.0625 262.96875 C 346.953125 261.859375 345.675781 261.316406 344.800781 262.011719 C 344.4375 262.316406 344.25 262.75 344.292969 263.222656 C 344.472656 265.113281 345.671875 267.441406 346.800781 268.957031 C 347.78125 270.253906 348.910156 271.386719 350.183594 272.398438 C 350.59375 272.714844 351.132812 272.785156 351.605469 272.578125 C 352.566406 272.152344 352.730469 270.867188 351.90625 270.210938 C 350.835938 269.367188 349.851562 268.378906 349.027344 267.289062 C 348.234375 266.238281 347.1875 264.285156 347.0625 262.96875 Z M 358.828125 274.003906 C 358.34375 273.824219 357.816406 273.917969 357.425781 274.253906 C 356.628906 274.953125 356.863281 276.230469 357.847656 276.605469 C 362.160156 278.226562 366.8125 279.097656 371.402344 279.378906 L 371.871094 279.402344 C 372.390625 279.429688 372.878906 279.160156 373.140625 278.710938 C 373.664062 277.808594 373.046875 276.675781 372 276.625 C 367.542969 276.394531 363.011719 275.574219 358.828125 274.003906 Z M 380.105469 276.320312 C 379.144531 276.4375 378.601562 277.460938 379.027344 278.324219 C 379.300781 278.855469 379.847656 279.148438 380.441406 279.082031 C 385.210938 278.515625 389.917969 277.242188 394.195312 275.027344 C 394.695312 274.761719 394.984375 274.242188 394.941406 273.679688 C 394.847656 272.683594 393.800781 272.101562 392.910156 272.558594 C 388.960938 274.617188 384.515625 275.796875 380.105469 276.320312 Z M 400.101562 268.441406 C 399.519531 268.785156 399.261719 269.480469 399.488281 270.117188 C 399.789062 270.9375 400.742188 271.28125 401.496094 270.851562 L 413.550781 263.898438 C 414.136719 263.554688 414.390625 262.859375 414.164062 262.222656 C 413.867188 261.40625 412.914062 261.058594 412.160156 261.488281 Z M 419.394531 257.316406 C 418.808594 257.660156 418.550781 258.355469 418.777344 258.992188 C 419.078125 259.808594 420.027344 260.15625 420.785156 259.726562 L 432.839844 252.773438 C 433.421875 252.429688 433.679688 251.734375 433.453125 251.09375 C 433.152344 250.28125 432.203125 249.933594 431.445312 250.363281 Z M 438.679688 246.191406 C 438.09375 246.53125 437.835938 247.226562 438.066406 247.867188 C 438.363281 248.683594 439.316406 249.03125 440.070312 248.601562 L 452.125 241.644531 C 452.710938 241.304688 452.96875 240.609375 452.738281 239.972656 C 452.441406 239.152344 451.492188 238.804688 450.734375 239.238281 Z M 457.964844 235.066406 C 457.382812 235.40625 457.125 236.101562 457.351562 236.742188 C 457.652344 237.558594 458.605469 237.90625 459.359375 237.476562 L 471.414062 230.523438 C 472 230.179688 472.253906 229.484375 472.027344 228.847656 C 471.730469 228.027344 470.777344 227.679688 470.023438 228.113281 Z M 477.253906 223.941406 C 476.671875 224.28125 476.414062 224.976562 476.640625 225.617188 C 476.941406 226.433594 477.890625 226.78125 478.648438 226.347656 L 490.703125 219.394531 C 491.285156 219.054688 491.542969 218.359375 491.316406 217.71875 C 491.015625 216.902344 490.066406 216.554688 489.308594 216.988281 Z M 496.542969 212.816406 C 495.957031 213.15625 495.699219 213.851562 495.929688 214.492188 C 496.226562 215.308594 497.179688 215.65625 497.933594 215.222656 L 509.988281 208.269531 C 510.574219 207.929688 510.828125 207.234375 510.601562 206.59375 C 510.304688 205.777344 509.351562 205.429688 508.597656 205.859375 Z M 515.828125 201.691406 C 515.246094 202.03125 514.988281 202.726562 515.214844 203.367188 C 515.515625 204.179688 516.464844 204.527344 517.222656 204.097656 L 529.277344 197.144531 C 529.863281 196.800781 530.121094 196.109375 529.890625 195.46875 C 529.59375 194.652344 528.640625 194.304688 527.886719 194.738281 Z M 535.117188 190.5625 C 534.53125 190.90625 534.277344 191.601562 534.503906 192.238281 C 534.800781 193.058594 535.753906 193.402344 536.511719 192.972656 L 548.5625 186.019531 C 549.148438 185.675781 549.40625 184.980469 549.175781 184.34375 C 548.878906 183.527344 547.929688 183.179688 547.171875 183.609375 Z M 554.402344 179.4375 C 553.820312 179.78125 553.5625 180.476562 553.789062 181.113281 C 554.089844 181.933594 555.042969 182.277344 555.796875 181.847656 L 567.851562 174.894531 C 568.4375 174.550781 568.691406 173.855469 568.464844 173.21875 C 568.167969 172.402344 567.214844 172.054688 566.460938 172.484375 Z M 573.769531 168.28125 C 573.320312 168.507812 573.023438 168.960938 573.003906 169.464844 C 572.960938 170.523438 574.066406 171.242188 575.015625 170.769531 C 576.316406 170.117188 577.707031 170.164062 578.964844 170.890625 C 580.308594 171.675781 581.054688 172.945312 581.054688 174.503906 L 581.054688 177.074219 C 581.054688 178.289062 582.507812 178.917969 583.394531 178.09375 C 583.679688 177.832031 583.839844 177.460938 583.839844 177.074219 L 583.839844 174.503906 C 583.839844 171.964844 582.558594 169.753906 580.359375 168.484375 C 578.277344 167.289062 575.917969 167.207031 573.769531 168.28125 Z M 578.964844 170.890625 L 580.359375 168.484375 Z M 583.839844 185.417969 C 583.839844 184.207031 582.390625 183.578125 581.5 184.402344 C 581.214844 184.664062 581.054688 185.03125 581.054688 185.417969 L 581.054688 199.324219 C 581.054688 200.535156 582.507812 201.167969 583.394531 200.34375 C 583.679688 200.082031 583.839844 199.714844 583.839844 199.324219 Z M 583.839844 207.667969 C 583.839844 206.457031 582.390625 205.828125 581.5 206.652344 C 581.214844 206.914062 581.054688 207.285156 581.054688 207.667969 L 581.054688 221.578125 C 581.054688 222.789062 582.507812 223.417969 583.394531 222.59375 C 583.679688 222.332031 583.839844 221.960938 583.839844 221.578125 Z M 583.839844 229.921875 C 583.839844 228.710938 582.390625 228.078125 581.5 228.902344 C 581.214844 229.164062 581.054688 229.535156 581.054688 229.921875 L 581.054688 243.828125 C 581.054688 245.039062 582.507812 245.671875 583.394531 244.847656 C 583.679688 244.582031 583.839844 244.214844 583.839844 243.828125 Z M 583.839844 252.171875 C 583.839844 250.960938 582.390625 250.328125 581.5 251.152344 C 581.214844 251.417969 581.054688 251.785156 581.054688 252.171875 L 581.054688 266.078125 C 581.054688 267.292969 582.507812 267.921875 583.394531 267.097656 C 583.679688 266.832031 583.839844 266.464844 583.839844 266.078125 Z M 583.839844 274.421875 C 583.839844 273.210938 582.390625 272.582031 581.5 273.40625 C 581.214844 273.667969 581.054688 274.035156 581.054688 274.421875 L 581.054688 288.328125 C 581.054688 289.542969 582.507812 290.171875 583.394531 289.347656 C 583.679688 289.085938 583.839844 288.714844 583.839844 288.328125 Z M 583.839844 296.671875 C 583.839844 295.460938 582.390625 294.832031 581.5 295.65625 C 581.214844 295.917969 581.054688 296.289062 581.054688 296.671875 L 581.054688 310.582031 C 581.054688 311.792969 582.507812 312.421875 583.394531 311.601562 C 583.679688 311.335938 583.839844 310.96875 583.839844 310.582031 Z M 583.839844 318.925781 C 583.839844 317.714844 582.390625 317.082031 581.5 317.90625 C 581.214844 318.167969 581.054688 318.539062 581.054688 318.925781 L 581.054688 324.78125 C 581.054688 326.335938 580.308594 327.609375 578.964844 328.394531 L 577.046875 329.5 C 576.464844 329.84375 576.207031 330.539062 576.433594 331.175781 C 576.734375 331.996094 577.683594 332.339844 578.441406 331.910156 L 580.359375 330.804688 C 582.558594 329.53125 583.839844 327.320312 583.839844 324.78125 Z M 571.207031 336.082031 C 571.792969 335.738281 572.050781 335.042969 571.820312 334.40625 C 571.523438 333.589844 570.570312 333.242188 569.816406 333.675781 L 557.761719 340.625 C 557.175781 340.96875 556.921875 341.664062 557.148438 342.300781 C 557.445312 343.121094 558.394531 343.46875 559.152344 343.035156 Z M 551.921875 347.207031 C 552.503906 346.863281 552.761719 346.171875 552.535156 345.53125 C 552.234375 344.714844 551.28125 344.367188 550.527344 344.800781 L 538.472656 351.753906 C 537.886719 352.09375 537.632812 352.789062 537.859375 353.429688 C 538.15625 354.246094 539.109375 354.59375 539.863281 354.160156 Z M 532.632812 358.332031 C 533.214844 357.992188 533.472656 357.296875 533.246094 356.65625 C 532.945312 355.839844 531.996094 355.492188 531.238281 355.925781 L 519.183594 362.878906 C 518.601562 363.21875 518.34375 363.914062 518.570312 364.554688 C 518.871094 365.371094 519.824219 365.71875 520.578125 365.285156 Z M 513.34375 369.457031 C 513.929688 369.117188 514.1875 368.421875 513.957031 367.78125 C 513.660156 366.964844 512.707031 366.617188 511.953125 367.050781 L 499.898438 374.003906 C 499.3125 374.347656 499.058594 375.042969 499.285156 375.679688 C 499.582031 376.496094 500.535156 376.84375 501.289062 376.410156 Z M 494.058594 380.585938 C 494.640625 380.242188 494.898438 379.546875 494.671875 378.910156 C 494.371094 378.089844 493.421875 377.742188 492.667969 378.175781 L 480.609375 385.128906 C 480.023438 385.472656 479.769531 386.167969 479.996094 386.804688 C 480.292969 387.621094 481.246094 387.96875 482 387.539062 Z M 474.769531 391.710938 C 475.355469 391.367188 475.609375 390.671875 475.382812 390.035156 C 475.085938 389.214844 474.132812 388.871094 473.375 389.300781 L 461.324219 396.253906 C 460.738281 396.597656 460.480469 397.289062 460.710938 397.929688 C 461.007812 398.746094 461.960938 399.09375 462.714844 398.664062 Z M 455.480469 402.835938 C 456.066406 402.492188 456.324219 401.796875 456.097656 401.160156 C 455.796875 400.34375 454.84375 399.996094 454.089844 400.425781 L 442.035156 407.378906 C 441.449219 407.722656 441.195312 408.417969 441.421875 409.054688 C 441.71875 409.871094 442.671875 410.21875 443.429688 409.789062 Z M 436.195312 413.960938 C 436.78125 413.617188 437.035156 412.925781 436.808594 412.285156 C 436.511719 411.46875 435.558594 411.121094 434.804688 411.550781 L 422.746094 418.503906 C 422.160156 418.847656 421.90625 419.542969 422.132812 420.179688 C 422.433594 420.996094 423.382812 421.34375 424.140625 420.914062 Z M 416.90625 425.085938 C 417.492188 424.742188 417.746094 424.050781 417.519531 423.410156 C 417.222656 422.59375 416.273438 422.246094 415.515625 422.675781 L 403.460938 429.628906 C 402.875 429.972656 402.617188 430.667969 402.847656 431.304688 C 403.144531 432.125 404.097656 432.472656 404.851562 432.039062 Z M 397.621094 436.210938 C 398.203125 435.867188 398.460938 435.171875 398.234375 434.535156 C 397.933594 433.71875 396.980469 433.371094 396.226562 433.804688 L 393.902344 435.144531 C 390.746094 436.910156 387.355469 438.113281 383.8125 438.84375 C 383.375 438.9375 383.023438 439.214844 382.832031 439.625 C 382.359375 440.664062 383.257812 441.796875 384.378906 441.570312 L 384.472656 441.546875 C 388.289062 440.742188 391.863281 439.472656 395.273438 437.566406 Z M 375.855469 442.554688 C 377.15625 442.503906 377.6875 440.863281 376.660156 440.0625 C 376.398438 439.859375 376.09375 439.765625 375.765625 439.773438 C 375.261719 439.789062 374.761719 439.796875 374.257812 439.804688 C 370.273438 439.785156 366.242188 439.277344 362.382812 438.265625 C 361.253906 437.960938 360.269531 439.121094 360.757812 440.1875 C 360.9375 440.566406 361.257812 440.84375 361.664062 440.953125 C 364.09375 441.605469 366.628906 442.039062 369.128906 442.304688 C 370.832031 442.476562 372.546875 442.582031 374.257812 442.582031 C 374.789062 442.582031 375.324219 442.570312 375.855469 442.554688 " fill-opacity="1" fill-rule="evenodd"/></g><path fill="#996633" d="M 357.226562 237.960938 L 353.9375 239.859375 C 348.34375 243.085938 345.546875 247.335938 345.546875 251.582031 C 345.546875 255.832031 348.34375 260.082031 353.9375 263.308594 C 359.53125 266.535156 366.898438 268.148438 374.261719 268.148438 C 381.628906 268.148438 388.996094 266.535156 394.589844 263.308594 L 590.425781 150.347656 L 582.550781 145.804688 L 386.714844 258.765625 C 383.296875 260.738281 378.78125 261.726562 374.261719 261.726562 C 369.746094 261.726562 365.230469 260.738281 361.8125 258.765625 C 358.390625 256.792969 356.679688 254.191406 356.679688 251.582031 C 356.679688 248.976562 358.390625 246.375 361.8125 244.402344 L 362.199219 244.179688 L 357.226562 237.960938 " fill-opacity="1" fill-rule="evenodd"/><path fill="#996633" d="M 590.386719 206.933594 C 599.878906 213.023438 602.003906 221.664062 596.710938 228.875 C 594.972656 231.246094 592.40625 233.449219 589.0625 235.375 L 538.921875 264.296875 C 529.375 269.875 521.472656 284.492188 523.550781 294.910156 C 524.078125 297.558594 525.15625 299.628906 527.320312 301.253906 L 520.796875 297.390625 C 517.746094 295.371094 516.671875 291.050781 516.710938 287.589844 C 516.820312 277.40625 523.632812 265.617188 532.402344 260.429688 L 582.625 231.664062 C 588.183594 228.457031 590.769531 224.15625 590.386719 219.929688 L 590.386719 206.933594 " fill-opacity="1" fill-rule="evenodd"/><path fill="#6e4721" d="M 589.0625 235.375 L 538.921875 264.296875 C 530.292969 269.277344 523.230469 281.5 523.230469 291.457031 C 523.230469 301.414062 530.292969 305.488281 538.921875 300.507812 L 589.0625 271.589844 L 589.0625 271.710938 L 589.707031 271.328125 C 594.5625 268.382812 599.332031 263.589844 599.515625 257.582031 L 599.515625 221.246094 C 599.113281 227.773438 594.386719 232.226562 589.0625 235.375 " fill-opacity="1" fill-rule="evenodd"/><path fill="#333333" d="M 536.09375 294.132812 C 535.386719 293.726562 533.625 292.8125 533.039062 292.246094 C 530.457031 289.753906 531.804688 284.558594 533.257812 281.6875 C 534.875 278.5 538.582031 274.164062 542.40625 274.359375 C 543.019531 274.386719 543.554688 274.542969 544.089844 274.839844 L 546.453125 276.203125 C 542.746094 274.261719 538.457031 278.515625 536.613281 281.332031 C 534.4375 284.65625 532.097656 291.605469 536.09375 294.132812 " fill-opacity="1" fill-rule="evenodd"/><path fill="#666666" d="M 541.214844 276.671875 C 545.261719 274.335938 548.539062 276.226562 548.539062 280.898438 C 548.539062 285.566406 545.261719 291.242188 541.214844 293.574219 C 537.167969 295.90625 533.886719 294.015625 533.886719 289.347656 C 533.886719 284.679688 537.167969 279.003906 541.214844 276.671875 " fill-opacity="1" fill-rule="evenodd"/></svg>