<svg xmlns="http://www.w3.org/2000/svg" xmlns:xlink="http://www.w3.org/1999/xlink" width="1366" zoomAndPan="magnify" viewBox="0 0 1024.5 576" height="768" preserveAspectRatio="xMidYMid meet" version="1.0"><defs><clipPath id="88a63c11e6"><path d="M 266.992188 123 L 304 123 L 304 220 L 266.992188 220 Z M 266.992188 123 " clip-rule="nonzero"/></clipPath><clipPath id="71897830de"><path d="M 593 36.707031 L 706 36.707031 L 706 149 L 593 149 Z M 593 36.707031 " clip-rule="nonzero"/></clipPath><clipPath id="3aad854056"><path d="M 641 36.707031 L 706 36.707031 L 706 149 L 641 149 Z M 641 36.707031 " clip-rule="nonzero"/></clipPath><clipPath id="b41290c7bc"><path d="M 266.992188 354 L 452 354 L 452 538.964844 L 266.992188 538.964844 Z M 266.992188 354 " clip-rule="nonzero"/></clipPath><clipPath id="d30ebc5047"><path d="M 355 354 L 452 354 L 452 538.964844 L 355 538.964844 Z M 355 354 " clip-rule="nonzero"/></clipPath></defs><path fill="#a79ba7" d="M 349.503906 284.890625 C 346.972656 288.621094 341.894531 289.59375 338.164062 287.066406 C 334.429688 284.539062 333.453125 279.46875 335.984375 275.738281 L 352.476562 251.460938 C 355.007812 247.730469 360.085938 246.757812 363.816406 249.285156 C 364.753906 249.917969 365.515625 250.710938 366.09375 251.601562 L 382.488281 275.738281 C 385.019531 279.46875 384.042969 284.542969 380.3125 287.066406 C 376.578125 289.59375 371.5 288.621094 368.96875 284.890625 L 367.4375 282.636719 L 367.4375 331.742188 C 367.4375 336.265625 363.765625 339.933594 359.238281 339.933594 C 354.707031 339.933594 351.035156 336.265625 351.035156 331.742188 L 351.035156 282.636719 Z M 349.503906 284.890625 " fill-opacity="1" fill-rule="evenodd"/><g clip-path="url(#88a63c11e6)"><path fill="#d1d1d6" d="M 303.828125 123.957031 C 303.890625 187.746094 303.890625 219.589844 303.828125 219.488281 L 271.992188 219.488281 C 269.226562 219.488281 266.96875 217.234375 266.96875 214.46875 L 266.96875 128.976562 C 266.96875 126.210938 269.222656 123.953125 271.992188 123.953125 L 303.828125 123.953125 Z M 303.828125 123.957031 " fill-opacity="1" fill-rule="evenodd"/><path fill="#b1b1b5" d="M 266.96875 214.46875 C 266.96875 214.472656 266.96875 214.476562 266.96875 214.480469 C 266.972656 217.242188 269.230469 219.488281 271.992188 219.488281 L 303.863281 219.488281 L 303.863281 123.957031 L 298.835938 123.957031 L 298.835938 214.46875 Z M 266.96875 214.46875 " fill-opacity="1" fill-rule="evenodd"/></g><path fill="#f6dccd" d="M 383.242188 229.070312 C 346.171875 235.445312 324.621094 240.101562 303.074219 219.488281 L 303.074219 123.957031 C 320.058594 111.214844 342.488281 100.296875 342.488281 76.191406 L 342.488281 47.191406 C 361.640625 47.191406 377.316406 62.835938 377.316406 81.96875 L 377.316406 104.46875 C 376.652344 109.253906 373.589844 116.246094 367.65625 122.175781 C 421.582031 136.023438 398.625 229.730469 383.242188 229.070312 Z M 383.242188 229.070312 " fill-opacity="1" fill-rule="evenodd"/><path fill="#f1cbbc" d="M 311.535156 226.308594 C 308.691406 224.429688 305.882812 222.175781 303.074219 219.488281 L 303.074219 123.957031 C 320.058594 111.210938 342.488281 100.296875 342.488281 76.191406 L 342.488281 47.191406 C 351.933594 47.191406 360.527344 50.996094 366.820312 57.144531 C 361.597656 54.015625 355.496094 52.210938 348.996094 52.210938 L 348.996094 81.214844 C 348.996094 105.316406 326.566406 116.234375 309.582031 128.976562 L 309.582031 224.511719 C 310.230469 225.132812 310.882812 225.730469 311.535156 226.308594 Z M 311.535156 226.308594 " fill-opacity="1" fill-rule="evenodd"/><path fill="#f6dccd" d="M 387.457031 229.730469 L 409.792969 229.730469 C 417.40625 229.730469 423.632812 223.507812 423.632812 215.90625 C 423.632812 208.308594 417.40625 202.085938 409.796875 202.085938 L 418.046875 202.085938 C 425.660156 202.085938 431.886719 195.867188 431.886719 188.265625 C 431.886719 180.664062 425.65625 174.445312 418.046875 174.445312 L 427.757812 174.445312 C 435.371094 174.445312 441.597656 168.226562 441.597656 160.625 C 441.597656 153.023438 435.371094 146.804688 427.757812 146.804688 L 421.929688 146.804688 C 429.539062 146.804688 435.765625 140.585938 435.765625 132.980469 C 435.765625 125.378906 429.539062 119.160156 421.929688 119.160156 L 387.460938 119.160156 C 379.847656 119.160156 373.621094 125.378906 373.621094 132.980469 C 373.621094 140.585938 379.847656 146.804688 387.460938 146.804688 L 381.628906 146.804688 C 374.019531 146.804688 367.792969 153.023438 367.792969 160.625 C 367.792969 168.226562 374.019531 174.445312 381.628906 174.445312 L 387.460938 174.445312 C 379.847656 174.445312 373.621094 180.664062 373.621094 188.265625 C 373.621094 195.867188 379.847656 202.085938 387.460938 202.085938 C 379.847656 202.085938 373.621094 208.304688 373.621094 215.90625 C 373.621094 223.507812 379.847656 229.730469 387.457031 229.730469 Z M 387.457031 229.730469 " fill-opacity="1" fill-rule="evenodd"/><path fill="#f1cbbc" d="M 387.457031 229.730469 L 409.792969 229.730469 C 417.40625 229.730469 423.632812 223.507812 423.632812 215.90625 L 373.621094 215.90625 C 373.621094 223.507812 379.847656 229.730469 387.457031 229.730469 Z M 387.457031 229.730469 " fill-opacity="1" fill-rule="evenodd"/><path fill="#f1cbbc" d="M 409.796875 202.085938 L 418.046875 202.085938 C 425.660156 202.085938 431.886719 195.867188 431.886719 188.265625 L 373.621094 188.265625 C 373.621094 195.867188 379.847656 202.085938 387.460938 202.085938 Z M 409.796875 202.085938 " fill-opacity="1" fill-rule="evenodd"/><path fill="#f1cbbc" d="M 418.046875 174.445312 L 427.757812 174.445312 C 435.371094 174.445312 441.597656 168.226562 441.597656 160.625 L 367.792969 160.625 C 367.792969 168.226562 374.019531 174.445312 381.628906 174.445312 Z M 418.046875 174.445312 " fill-opacity="1" fill-rule="evenodd"/><path fill="#f1cbbc" d="M 421.929688 146.804688 C 429.539062 146.804688 435.765625 140.585938 435.765625 132.984375 L 373.621094 132.984375 C 373.621094 140.585938 379.847656 146.804688 387.457031 146.804688 Z M 421.929688 146.804688 " fill-opacity="1" fill-rule="evenodd"/><path fill="#a79ba7" d="M 525.042969 131.117188 C 521.308594 128.589844 520.332031 123.515625 522.863281 119.789062 C 525.394531 116.058594 530.472656 115.085938 534.203125 117.613281 L 558.511719 134.085938 C 562.246094 136.613281 563.222656 141.683594 560.691406 145.414062 C 560.058594 146.347656 559.261719 147.109375 558.367188 147.6875 L 534.203125 164.0625 C 530.472656 166.589844 525.390625 165.617188 522.863281 161.886719 C 520.332031 158.160156 521.308594 153.085938 525.042969 150.558594 L 527.300781 149.03125 L 478.136719 149.03125 C 473.609375 149.03125 469.933594 145.363281 469.933594 140.839844 C 469.933594 136.3125 473.609375 132.644531 478.136719 132.644531 L 527.300781 132.644531 Z M 525.042969 131.117188 " fill-opacity="1" fill-rule="evenodd"/><path fill="#8ac9fe" d="M 554.292969 257.390625 L 744.03125 257.386719 C 748.058594 257.386719 751.523438 255.691406 753.988281 252.511719 C 756.457031 249.335938 757.238281 245.558594 756.234375 241.664062 C 743.960938 194.035156 700.675781 158.839844 649.160156 158.839844 C 597.644531 158.839844 554.359375 194.035156 542.085938 241.667969 C 541.082031 245.5625 541.867188 249.335938 544.332031 252.515625 C 546.800781 255.691406 550.265625 257.390625 554.292969 257.390625 Z M 554.292969 257.390625 " fill-opacity="1" fill-rule="evenodd"/><path fill="#60b7ff" d="M 744.03125 257.386719 C 748.058594 257.386719 751.523438 255.691406 753.988281 252.511719 C 756.457031 249.332031 757.238281 245.558594 756.234375 241.664062 C 743.960938 194.035156 700.679688 158.839844 649.164062 158.839844 C 644.902344 158.839844 640.699219 159.085938 636.5625 159.554688 C 682.425781 164.75 719.777344 197.976562 731.035156 241.667969 C 732.039062 245.5625 731.257812 249.335938 728.789062 252.511719 C 726.324219 255.691406 722.859375 257.390625 718.832031 257.390625 C 727.230469 257.386719 735.628906 257.386719 744.03125 257.386719 Z M 744.03125 257.386719 " fill-opacity="1" fill-rule="evenodd"/><g clip-path="url(#71897830de)"><path fill="#f6dccd" d="M 649.164062 36.941406 C 680.035156 36.941406 705.0625 61.941406 705.0625 92.777344 C 705.0625 123.617188 680.035156 148.613281 649.164062 148.613281 C 618.289062 148.613281 593.261719 123.617188 593.261719 92.777344 C 593.261719 61.941406 618.289062 36.941406 649.164062 36.941406 Z M 649.164062 36.941406 " fill-opacity="1" fill-rule="evenodd"/></g><g clip-path="url(#3aad854056)"><path fill="#f1cbbc" d="M 649.164062 36.941406 C 680.035156 36.941406 705.0625 61.941406 705.0625 92.777344 C 705.0625 123.617188 680.035156 148.613281 649.164062 148.613281 C 646.5 148.613281 643.886719 148.425781 641.328125 148.066406 C 668.488281 144.257812 689.390625 120.960938 689.390625 92.777344 C 689.390625 64.597656 668.488281 41.296875 641.328125 37.492188 C 643.886719 37.132812 646.5 36.941406 649.164062 36.941406 Z M 649.164062 36.941406 " fill-opacity="1" fill-rule="evenodd"/></g><path fill="#a79ba7" d="M 522.265625 423.339844 C 525.996094 420.8125 531.078125 421.785156 533.605469 425.515625 C 536.136719 429.242188 535.160156 434.316406 531.425781 436.84375 L 529.167969 438.371094 L 640.960938 438.371094 L 640.960938 292.597656 C 640.960938 288.070312 644.632812 284.402344 649.160156 284.402344 C 653.691406 284.402344 657.363281 288.070312 657.363281 292.597656 L 657.363281 446.566406 C 657.363281 451.089844 653.691406 454.757812 649.160156 454.757812 L 529.171875 454.757812 L 531.429688 456.285156 C 535.160156 458.8125 536.136719 463.886719 533.605469 467.613281 C 531.078125 471.34375 526 472.316406 522.265625 469.789062 L 498.101562 453.414062 C 497.207031 452.835938 496.414062 452.074219 495.777344 451.140625 C 493.25 447.414062 494.222656 442.339844 497.957031 439.8125 Z M 522.265625 423.339844 " fill-opacity="1" fill-rule="evenodd"/><g clip-path="url(#b41290c7bc)"><path fill="#ffd064" d="M 451.507812 446.566406 C 451.507812 448.074219 451.46875 449.582031 451.394531 451.085938 C 451.320312 452.59375 451.210938 454.097656 451.0625 455.597656 C 450.914062 457.097656 450.730469 458.59375 450.507812 460.085938 C 450.285156 461.578125 450.027344 463.066406 449.734375 464.542969 C 449.4375 466.023438 449.109375 467.496094 448.742188 468.957031 C 448.375 470.421875 447.972656 471.875 447.535156 473.316406 C 447.09375 474.761719 446.621094 476.191406 446.113281 477.613281 C 445.605469 479.035156 445.0625 480.441406 444.484375 481.832031 C 443.90625 483.226562 443.292969 484.605469 442.648438 485.96875 C 442.003906 487.332031 441.324219 488.679688 440.613281 490.011719 C 439.898438 491.339844 439.15625 492.652344 438.378906 493.945312 C 437.601562 495.238281 436.796875 496.511719 435.957031 497.769531 C 435.117188 499.023438 434.25 500.253906 433.347656 501.464844 C 432.449219 502.675781 431.519531 503.867188 430.5625 505.03125 C 429.605469 506.199219 428.617188 507.339844 427.605469 508.457031 C 426.589844 509.574219 425.550781 510.667969 424.480469 511.734375 C 423.414062 512.800781 422.320312 513.839844 421.203125 514.851562 C 420.082031 515.867188 418.941406 516.851562 417.773438 517.808594 C 416.605469 518.765625 415.414062 519.691406 414.203125 520.589844 C 412.988281 521.488281 411.753906 522.359375 410.5 523.195312 C 409.242188 524.035156 407.96875 524.839844 406.671875 525.617188 C 405.378906 526.390625 404.0625 527.132812 402.734375 527.84375 C 401.402344 528.554688 400.050781 529.234375 398.6875 529.878906 C 397.320312 530.523438 395.941406 531.136719 394.546875 531.710938 C 393.152344 532.289062 391.742188 532.832031 390.320312 533.339844 C 388.898438 533.847656 387.464844 534.320312 386.019531 534.757812 C 384.578125 535.195312 383.121094 535.597656 381.65625 535.964844 C 380.191406 536.332031 378.71875 536.664062 377.238281 536.957031 C 375.757812 537.25 374.269531 537.507812 372.777344 537.730469 C 371.28125 537.953125 369.785156 538.136719 368.28125 538.285156 C 366.777344 538.433594 365.273438 538.542969 363.765625 538.617188 C 362.257812 538.691406 360.746094 538.726562 359.238281 538.726562 C 357.726562 538.726562 356.21875 538.691406 354.710938 538.617188 C 353.199219 538.542969 351.695312 538.433594 350.191406 538.285156 C 348.691406 538.136719 347.191406 537.953125 345.699219 537.730469 C 344.203125 537.507812 342.71875 537.25 341.234375 536.957031 C 339.753906 536.664062 338.28125 536.332031 336.816406 535.964844 C 335.351562 535.597656 333.898438 535.195312 332.453125 534.757812 C 331.007812 534.320312 329.574219 533.847656 328.152344 533.339844 C 326.730469 532.832031 325.320312 532.289062 323.925781 531.710938 C 322.53125 531.136719 321.152344 530.523438 319.785156 529.878906 C 318.421875 529.234375 317.074219 528.554688 315.742188 527.84375 C 314.410156 527.132812 313.097656 526.390625 311.800781 525.617188 C 310.503906 524.839844 309.230469 524.035156 307.972656 523.195312 C 306.71875 522.359375 305.484375 521.488281 304.273438 520.589844 C 303.058594 519.691406 301.867188 518.765625 300.703125 517.808594 C 299.535156 516.851562 298.390625 515.867188 297.273438 514.851562 C 296.152344 513.839844 295.058594 512.800781 293.992188 511.734375 C 292.925781 510.667969 291.882812 509.574219 290.871094 508.457031 C 289.855469 507.339844 288.871094 506.199219 287.910156 505.03125 C 286.953125 503.867188 286.023438 502.675781 285.125 501.464844 C 284.226562 500.253906 283.355469 499.023438 282.515625 497.769531 C 281.679688 496.511719 280.871094 495.238281 280.09375 493.945312 C 279.316406 492.652344 278.574219 491.339844 277.863281 490.011719 C 277.148438 488.679688 276.472656 487.332031 275.824219 485.96875 C 275.179688 484.605469 274.570312 483.226562 273.992188 481.832031 C 273.414062 480.441406 272.871094 479.035156 272.359375 477.613281 C 271.851562 476.191406 271.378906 474.761719 270.941406 473.316406 C 270.5 471.875 270.097656 470.421875 269.730469 468.957031 C 269.367188 467.496094 269.035156 466.023438 268.738281 464.542969 C 268.445312 463.066406 268.1875 461.578125 267.964844 460.085938 C 267.742188 458.59375 267.558594 457.097656 267.410156 455.597656 C 267.261719 454.097656 267.152344 452.59375 267.078125 451.085938 C 267.003906 449.582031 266.96875 448.074219 266.96875 446.566406 C 266.96875 445.054688 267.003906 443.546875 267.078125 442.042969 C 267.152344 440.535156 267.261719 439.03125 267.410156 437.53125 C 267.558594 436.03125 267.742188 434.535156 267.964844 433.042969 C 268.1875 431.550781 268.445312 430.0625 268.738281 428.585938 C 269.035156 427.105469 269.367188 425.632812 269.730469 424.171875 C 270.097656 422.707031 270.5 421.253906 270.941406 419.8125 C 271.378906 418.367188 271.851562 416.9375 272.359375 415.515625 C 272.871094 414.09375 273.414062 412.6875 273.992188 411.296875 C 274.570312 409.902344 275.179688 408.523438 275.824219 407.160156 C 276.472656 405.796875 277.148438 404.449219 277.863281 403.117188 C 278.574219 401.789062 279.316406 400.476562 280.09375 399.183594 C 280.871094 397.890625 281.679688 396.617188 282.515625 395.359375 C 283.355469 394.105469 284.226562 392.875 285.125 391.664062 C 286.023438 390.453125 286.953125 389.261719 287.910156 388.097656 C 288.871094 386.929688 289.855469 385.789062 290.871094 384.671875 C 291.882812 383.554688 292.925781 382.460938 293.992188 381.394531 C 295.058594 380.328125 296.152344 379.289062 297.273438 378.277344 C 298.390625 377.261719 299.535156 376.277344 300.703125 375.320312 C 301.867188 374.363281 303.058594 373.4375 304.273438 372.539062 C 305.484375 371.640625 306.71875 370.769531 307.972656 369.933594 C 309.230469 369.09375 310.503906 368.289062 311.800781 367.511719 C 313.097656 366.738281 314.410156 365.996094 315.742188 365.285156 C 317.074219 364.574219 318.421875 363.894531 319.785156 363.25 C 321.152344 362.605469 322.53125 361.992188 323.925781 361.417969 C 325.320312 360.839844 326.730469 360.296875 328.152344 359.789062 C 329.574219 359.28125 331.007812 358.808594 332.453125 358.371094 C 333.898438 357.933594 335.351562 357.53125 336.816406 357.164062 C 338.28125 356.796875 339.753906 356.464844 341.234375 356.171875 C 342.71875 355.878906 344.203125 355.621094 345.699219 355.398438 C 347.191406 355.175781 348.691406 354.992188 350.191406 354.84375 C 351.695312 354.695312 353.199219 354.585938 354.710938 354.511719 C 356.21875 354.4375 357.726562 354.402344 359.238281 354.402344 C 360.746094 354.402344 362.257812 354.4375 363.765625 354.511719 C 365.273438 354.585938 366.777344 354.695312 368.28125 354.84375 C 369.785156 354.992188 371.28125 355.175781 372.777344 355.398438 C 374.269531 355.621094 375.757812 355.878906 377.238281 356.171875 C 378.71875 356.464844 380.191406 356.796875 381.65625 357.164062 C 383.121094 357.53125 384.578125 357.933594 386.019531 358.371094 C 387.464844 358.808594 388.898438 359.28125 390.320312 359.789062 C 391.742188 360.296875 393.152344 360.839844 394.546875 361.417969 C 395.941406 361.992188 397.320312 362.605469 398.6875 363.25 C 400.050781 363.894531 401.402344 364.574219 402.734375 365.285156 C 404.0625 365.996094 405.378906 366.738281 406.671875 367.511719 C 407.96875 368.289062 409.242188 369.09375 410.5 369.933594 C 411.753906 370.769531 412.988281 371.640625 414.203125 372.539062 C 415.414062 373.4375 416.605469 374.363281 417.773438 375.320312 C 418.941406 376.277344 420.082031 377.261719 421.203125 378.277344 C 422.320312 379.289062 423.414062 380.328125 424.480469 381.394531 C 425.550781 382.460938 426.589844 383.554688 427.605469 384.671875 C 428.617188 385.789062 429.605469 386.929688 430.5625 388.097656 C 431.519531 389.261719 432.449219 390.453125 433.347656 391.664062 C 434.25 392.875 435.117188 394.105469 435.957031 395.359375 C 436.796875 396.617188 437.601562 397.890625 438.378906 399.183594 C 439.15625 400.476562 439.898438 401.789062 440.613281 403.117188 C 441.324219 404.449219 442.003906 405.796875 442.648438 407.160156 C 443.292969 408.523438 443.90625 409.902344 444.484375 411.296875 C 445.0625 412.6875 445.605469 414.09375 446.113281 415.515625 C 446.621094 416.9375 447.09375 418.367188 447.535156 419.8125 C 447.972656 421.253906 448.375 422.707031 448.742188 424.171875 C 449.109375 425.632812 449.4375 427.105469 449.734375 428.585938 C 450.027344 430.0625 450.285156 431.550781 450.507812 433.042969 C 450.730469 434.535156 450.914062 436.03125 451.0625 437.53125 C 451.210938 439.03125 451.320312 440.535156 451.394531 442.042969 C 451.46875 443.546875 451.507812 445.054688 451.507812 446.566406 Z M 451.507812 446.566406 " fill-opacity="1" fill-rule="nonzero"/></g><g clip-path="url(#d30ebc5047)"><path fill="#f5b829" d="M 355.347656 354.480469 C 404.5 356.519531 443.726562 396.964844 443.726562 446.566406 C 443.726562 496.164062 404.5 536.609375 355.347656 538.648438 C 356.636719 538.703125 357.933594 538.726562 359.238281 538.726562 C 410.195312 538.726562 451.507812 497.464844 451.507812 446.566406 C 451.507812 395.664062 410.195312 354.402344 359.238281 354.402344 C 357.933594 354.402344 356.636719 354.429688 355.347656 354.480469 Z M 355.347656 354.480469 " fill-opacity="1" fill-rule="evenodd"/></g><path fill="#ffc338" d="M 429.695312 446.566406 C 429.695312 447.714844 429.664062 448.867188 429.609375 450.019531 C 429.550781 451.167969 429.46875 452.316406 429.355469 453.460938 C 429.242188 454.609375 429.101562 455.75 428.929688 456.890625 C 428.761719 458.03125 428.566406 459.164062 428.339844 460.292969 C 428.117188 461.421875 427.863281 462.546875 427.582031 463.664062 C 427.300781 464.78125 426.996094 465.890625 426.660156 466.992188 C 426.324219 468.097656 425.964844 469.1875 425.574219 470.273438 C 425.1875 471.359375 424.773438 472.433594 424.332031 473.496094 C 423.890625 474.558594 423.421875 475.613281 422.929688 476.652344 C 422.4375 477.695312 421.917969 478.722656 421.375 479.738281 C 420.832031 480.753906 420.261719 481.757812 419.671875 482.746094 C 419.078125 483.734375 418.460938 484.707031 417.820312 485.664062 C 417.179688 486.621094 416.515625 487.5625 415.828125 488.488281 C 415.140625 489.414062 414.433594 490.320312 413.699219 491.210938 C 412.96875 492.101562 412.214844 492.972656 411.441406 493.824219 C 410.667969 494.679688 409.875 495.511719 409.058594 496.328125 C 408.242188 497.140625 407.40625 497.9375 406.554688 498.710938 C 405.699219 499.484375 404.824219 500.234375 403.933594 500.964844 C 403.042969 501.695312 402.132812 502.40625 401.207031 503.089844 C 400.28125 503.777344 399.339844 504.441406 398.378906 505.078125 C 397.421875 505.71875 396.449219 506.335938 395.460938 506.929688 C 394.46875 507.519531 393.46875 508.085938 392.449219 508.628906 C 391.433594 509.171875 390.402344 509.691406 389.359375 510.183594 C 388.320312 510.675781 387.265625 511.144531 386.199219 511.582031 C 385.132812 512.023438 384.058594 512.4375 382.972656 512.828125 C 381.886719 513.214844 380.792969 513.574219 379.691406 513.910156 C 378.585938 514.246094 377.476562 514.550781 376.355469 514.832031 C 375.238281 515.109375 374.113281 515.363281 372.980469 515.589844 C 371.851562 515.8125 370.714844 516.007812 369.574219 516.179688 C 368.433594 516.347656 367.289062 516.488281 366.144531 516.601562 C 364.996094 516.714844 363.847656 516.800781 362.695312 516.855469 C 361.542969 516.914062 360.390625 516.941406 359.238281 516.941406 C 358.082031 516.941406 356.929688 516.914062 355.78125 516.855469 C 354.628906 516.800781 353.476562 516.714844 352.332031 516.601562 C 351.183594 516.488281 350.039062 516.347656 348.898438 516.179688 C 347.757812 516.007812 346.621094 515.8125 345.492188 515.589844 C 344.359375 515.363281 343.234375 515.109375 342.117188 514.832031 C 341 514.550781 339.886719 514.246094 338.785156 513.910156 C 337.679688 513.574219 336.585938 513.214844 335.5 512.828125 C 334.414062 512.4375 333.339844 512.023438 332.273438 511.582031 C 331.207031 511.144531 330.15625 510.675781 329.113281 510.183594 C 328.070312 509.691406 327.039062 509.171875 326.023438 508.628906 C 325.007812 508.085938 324.003906 507.519531 323.015625 506.929688 C 322.027344 506.335938 321.050781 505.71875 320.09375 505.078125 C 319.132812 504.441406 318.191406 503.777344 317.265625 503.089844 C 316.339844 502.40625 315.429688 501.695312 314.539062 500.964844 C 313.648438 500.234375 312.773438 499.484375 311.921875 498.710938 C 311.066406 497.9375 310.230469 497.140625 309.417969 496.328125 C 308.601562 495.511719 307.804688 494.679688 307.03125 493.824219 C 306.257812 492.972656 305.503906 492.101562 304.773438 491.210938 C 304.042969 490.320312 303.332031 489.414062 302.644531 488.488281 C 301.957031 487.5625 301.292969 486.621094 300.652344 485.664062 C 300.011719 484.707031 299.394531 483.734375 298.804688 482.746094 C 298.210938 481.757812 297.644531 480.753906 297.097656 479.738281 C 296.554688 478.722656 296.039062 477.695312 295.542969 476.652344 C 295.050781 475.613281 294.585938 474.558594 294.144531 473.496094 C 293.703125 472.433594 293.285156 471.359375 292.898438 470.273438 C 292.507812 469.1875 292.148438 468.09375 291.8125 466.992188 C 291.480469 465.890625 291.171875 464.78125 290.890625 463.664062 C 290.609375 462.546875 290.359375 461.421875 290.132812 460.292969 C 289.910156 459.164062 289.710938 458.03125 289.542969 456.890625 C 289.371094 455.75 289.230469 454.609375 289.117188 453.460938 C 289.003906 452.316406 288.921875 451.167969 288.863281 450.019531 C 288.808594 448.867188 288.78125 447.714844 288.78125 446.566406 C 288.78125 445.414062 288.808594 444.261719 288.863281 443.113281 C 288.921875 441.960938 289.003906 440.8125 289.117188 439.667969 C 289.230469 438.519531 289.371094 437.378906 289.542969 436.238281 C 289.710938 435.097656 289.910156 433.964844 290.132812 432.835938 C 290.359375 431.707031 290.609375 430.582031 290.890625 429.464844 C 291.171875 428.347656 291.480469 427.238281 291.8125 426.136719 C 292.148438 425.035156 292.507812 423.941406 292.898438 422.855469 C 293.285156 421.769531 293.703125 420.695312 294.144531 419.632812 C 294.585938 418.570312 295.050781 417.515625 295.542969 416.476562 C 296.039062 415.433594 296.554688 414.40625 297.097656 413.390625 C 297.644531 412.375 298.210938 411.371094 298.804688 410.382812 C 299.394531 409.394531 300.011719 408.421875 300.652344 407.464844 C 301.292969 406.507812 301.957031 405.566406 302.644531 404.640625 C 303.332031 403.714844 304.042969 402.808594 304.773438 401.917969 C 305.503906 401.027344 306.257812 400.15625 307.03125 399.304688 C 307.804688 398.449219 308.601562 397.617188 309.417969 396.800781 C 310.230469 395.988281 311.066406 395.191406 311.921875 394.417969 C 312.773438 393.644531 313.648438 392.894531 314.539062 392.164062 C 315.429688 391.433594 316.339844 390.722656 317.265625 390.039062 C 318.191406 389.351562 319.132812 388.6875 320.09375 388.050781 C 321.050781 387.410156 322.027344 386.792969 323.015625 386.199219 C 324.003906 385.609375 325.007812 385.042969 326.023438 384.5 C 327.039062 383.957031 328.070312 383.4375 329.113281 382.945312 C 330.15625 382.453125 331.207031 381.988281 332.273438 381.546875 C 333.339844 381.105469 334.414062 380.691406 335.5 380.300781 C 336.585938 379.914062 337.679688 379.554688 338.785156 379.21875 C 339.886719 378.882812 341 378.578125 342.117188 378.296875 C 343.234375 378.019531 344.359375 377.765625 345.492188 377.539062 C 346.621094 377.316406 347.757812 377.121094 348.898438 376.949219 C 350.039062 376.78125 351.183594 376.640625 352.332031 376.527344 C 353.476562 376.414062 354.628906 376.328125 355.78125 376.273438 C 356.929688 376.21875 358.082031 376.1875 359.238281 376.1875 C 360.390625 376.1875 361.542969 376.21875 362.695312 376.273438 C 363.847656 376.328125 364.996094 376.414062 366.144531 376.527344 C 367.289062 376.640625 368.433594 376.78125 369.574219 376.949219 C 370.714844 377.121094 371.851562 377.316406 372.980469 377.539062 C 374.113281 377.765625 375.238281 378.019531 376.355469 378.296875 C 377.476562 378.578125 378.585938 378.882812 379.691406 379.21875 C 380.792969 379.554688 381.886719 379.914062 382.972656 380.300781 C 384.058594 380.691406 385.132812 381.105469 386.199219 381.546875 C 387.265625 381.988281 388.320312 382.453125 389.359375 382.945312 C 390.402344 383.4375 391.433594 383.957031 392.449219 384.5 C 393.46875 385.042969 394.46875 385.609375 395.460938 386.199219 C 396.449219 386.792969 397.421875 387.410156 398.378906 388.050781 C 399.339844 388.6875 400.28125 389.351562 401.207031 390.039062 C 402.132812 390.722656 403.042969 391.433594 403.933594 392.164062 C 404.824219 392.894531 405.699219 393.644531 406.554688 394.417969 C 407.40625 395.191406 408.242188 395.988281 409.058594 396.800781 C 409.875 397.617188 410.667969 398.449219 411.441406 399.304688 C 412.214844 400.15625 412.96875 401.027344 413.699219 401.917969 C 414.433594 402.808594 415.140625 403.714844 415.828125 404.640625 C 416.515625 405.566406 417.179688 406.507812 417.820312 407.464844 C 418.460938 408.421875 419.078125 409.394531 419.671875 410.382812 C 420.261719 411.371094 420.832031 412.375 421.375 413.390625 C 421.917969 414.40625 422.4375 415.433594 422.929688 416.476562 C 423.421875 417.515625 423.890625 418.570312 424.332031 419.632812 C 424.773438 420.695312 425.1875 421.769531 425.574219 422.855469 C 425.964844 423.941406 426.324219 425.035156 426.660156 426.136719 C 426.996094 427.238281 427.300781 428.347656 427.582031 429.464844 C 427.863281 430.582031 428.117188 431.707031 428.339844 432.835938 C 428.566406 433.964844 428.761719 435.097656 428.929688 436.238281 C 429.101562 437.378906 429.242188 438.519531 429.355469 439.667969 C 429.46875 440.8125 429.550781 441.960938 429.609375 443.113281 C 429.664062 444.261719 429.695312 445.414062 429.695312 446.566406 Z M 429.695312 446.566406 " fill-opacity="1" fill-rule="nonzero"/><path fill="#f5b829" d="M 297.183594 446.566406 C 297.183594 409.105469 326.480469 378.480469 363.4375 376.3125 C 362.050781 376.230469 360.648438 376.1875 359.238281 376.1875 C 320.324219 376.1875 288.78125 407.695312 288.78125 446.566406 C 288.78125 485.433594 320.324219 516.941406 359.238281 516.941406 C 360.648438 516.941406 362.050781 516.898438 363.4375 516.816406 C 326.480469 514.648438 297.183594 484.023438 297.183594 446.566406 Z M 297.183594 446.566406 " fill-opacity="1" fill-rule="evenodd"/><path fill="#ffe177" d="M 387.542969 422.015625 C 389.292969 426.1875 387.328125 430.988281 383.152344 432.738281 C 378.976562 434.488281 374.171875 432.523438 372.417969 428.351562 C 370.621094 424.074219 367.207031 421.601562 363.457031 420.652344 C 361.007812 420.035156 358.453125 419.992188 356.082031 420.46875 C 353.808594 420.925781 351.726562 421.84375 350.113281 423.152344 C 348.222656 424.691406 347.019531 426.898438 347.152344 429.625 C 347.269531 432.027344 348.546875 433.691406 350.332031 434.851562 C 353.066406 436.636719 356.921875 437.640625 360.613281 438.246094 C 366.328125 439.183594 372.582031 440.753906 377.859375 443.9375 C 384.089844 447.695312 388.792969 453.359375 389.855469 462.078125 C 389.933594 462.722656 389.980469 463.523438 390.003906 464.460938 C 390.195312 472.5 386.539062 478.480469 381.035156 482.652344 C 377.117188 485.621094 372.285156 487.542969 367.4375 488.53125 L 367.4375 491.097656 C 367.4375 495.621094 363.765625 499.289062 359.238281 499.289062 C 354.707031 499.289062 351.035156 495.621094 351.035156 491.097656 L 351.035156 488.363281 C 347.183594 487.472656 343.519531 485.957031 340.300781 483.8125 C 334.746094 480.121094 330.492188 474.664062 328.6875 467.445312 C 327.609375 463.0625 330.292969 458.636719 334.679688 457.558594 C 339.066406 456.480469 343.5 459.160156 344.578125 463.542969 C 345.304688 466.445312 347.046875 468.660156 349.335938 470.183594 C 352.28125 472.140625 356.085938 473.078125 359.964844 472.984375 C 360.585938 472.96875 361.382812 472.902344 362.355469 472.785156 C 365.65625 472.386719 368.914062 471.367188 371.167969 469.660156 C 372.695312 468.5 373.714844 466.90625 373.664062 464.847656 C 373.664062 464.738281 373.632812 464.457031 373.578125 463.996094 C 373.234375 461.179688 371.59375 459.277344 369.398438 457.953125 C 366.253906 456.054688 361.996094 455.03125 357.988281 454.375 C 352.441406 453.464844 346.40625 451.796875 341.421875 448.550781 C 335.492188 444.679688 331.230469 438.949219 330.8125 430.394531 C 330.402344 421.933594 334.046875 415.152344 339.796875 410.484375 C 343.007812 407.875 346.882812 405.984375 351.035156 404.894531 L 351.035156 402.03125 C 351.035156 397.507812 354.707031 393.835938 359.238281 393.835938 C 363.765625 393.835938 367.4375 397.507812 367.4375 402.03125 L 367.4375 404.785156 C 375.859375 406.917969 383.519531 412.449219 387.542969 422.015625 Z M 387.542969 422.015625 " fill-opacity="1" fill-rule="evenodd"/></svg>