<svg xmlns="http://www.w3.org/2000/svg" xmlns:xlink="http://www.w3.org/1999/xlink" width="500" zoomAndPan="magnify" viewBox="0 0 375 374.999991" height="500" preserveAspectRatio="xMidYMid meet" version="1.0"><defs><g/><clipPath id="130d674f6b"><path d="M 68 170 L 86 170 L 86 199.363281 L 68 199.363281 Z M 68 170 " clip-rule="nonzero"/></clipPath><clipPath id="093042071e"><path d="M 52 138.746094 L 98 138.746094 L 98 185 L 52 185 Z M 52 138.746094 " clip-rule="nonzero"/></clipPath><clipPath id="bbb37a32d5"><path d="M 37.5 151 L 71 151 L 71 188 L 37.5 188 Z M 37.5 151 " clip-rule="nonzero"/></clipPath><clipPath id="d12cb11ca1"><path d="M 66.238281 149.628906 L 87.089844 149.628906 L 87.089844 170.476562 L 66.238281 170.476562 Z M 66.238281 149.628906 " clip-rule="nonzero"/></clipPath></defs><g clip-path="url(#130d674f6b)"><path fill="#ffffff" d="M 69.269531 199.214844 C 69.148438 199.214844 69.027344 199.191406 68.914062 199.144531 C 68.570312 199 68.347656 198.664062 68.351562 198.289062 L 68.535156 183.078125 C 68.542969 182.570312 68.953125 182.164062 69.460938 182.171875 C 69.96875 182.179688 70.371094 182.59375 70.367188 183.097656 L 70.210938 196.0625 L 81.238281 185.039062 C 81.339844 184.90625 85.082031 180.203125 82.300781 171.859375 C 82.140625 171.378906 82.398438 170.863281 82.878906 170.703125 C 83.363281 170.542969 83.875 170.800781 84.035156 171.28125 C 87.15625 180.636719 82.777344 186.042969 82.585938 186.269531 L 69.917969 198.949219 C 69.742188 199.125 69.507812 199.214844 69.269531 199.214844 " fill-opacity="1" fill-rule="nonzero"/></g><g clip-path="url(#093042071e)"><path fill="#ffffff" d="M 54.886719 167.226562 L 69.554688 181.894531 C 70.589844 181.089844 73.710938 178.554688 82.566406 170.878906 C 93.335938 161.550781 95.636719 145.019531 96.066406 140.710938 C 91.753906 141.140625 75.21875 143.453125 65.898438 154.207031 C 58.289062 162.988281 55.734375 166.132812 54.886719 167.226562 Z M 69.453125 184.003906 C 69.214844 184.003906 68.980469 183.910156 68.804688 183.734375 L 53.042969 167.96875 C 52.769531 167.703125 52.699219 167.296875 52.851562 166.949219 C 53.136719 166.320312 57.496094 161.109375 64.515625 153.007812 C 75.757812 140.035156 96.15625 138.839844 97.019531 138.796875 C 97.300781 138.773438 97.53125 138.878906 97.714844 139.0625 C 97.898438 139.246094 97.996094 139.5 97.980469 139.757812 C 97.9375 140.617188 96.742188 161.019531 83.765625 172.261719 C 75.671875 179.28125 70.460938 183.636719 69.828125 183.921875 C 69.707031 183.976562 69.582031 184.003906 69.453125 184.003906 " fill-opacity="1" fill-rule="nonzero"/></g><g clip-path="url(#bbb37a32d5)"><path fill="#ffffff" d="M 60.558594 187.511719 C 60.324219 187.511719 60.085938 187.417969 59.914062 187.246094 L 49.53125 176.863281 C 49.273438 176.605469 49.195312 176.21875 49.328125 175.878906 L 52.335938 168.253906 L 38.488281 168.421875 C 38.0625 168.394531 37.777344 168.207031 37.632812 167.863281 C 37.488281 167.519531 37.566406 167.125 37.828125 166.859375 L 50.445312 154.246094 C 50.730469 154 56.136719 149.621094 65.496094 152.738281 C 65.976562 152.898438 66.234375 153.417969 66.074219 153.898438 C 65.914062 154.378906 65.398438 154.628906 64.914062 154.480469 C 56.578125 151.695312 51.875 155.4375 51.675781 155.597656 L 40.710938 166.566406 L 53.675781 166.40625 C 54.023438 166.441406 54.269531 166.554688 54.441406 166.804688 C 54.617188 167.054688 54.652344 167.375 54.539062 167.660156 L 51.25 175.996094 L 60.78125 185.527344 L 69.117188 182.238281 C 69.585938 182.050781 70.117188 182.28125 70.304688 182.75 C 70.488281 183.222656 70.257812 183.753906 69.789062 183.9375 L 60.894531 187.449219 C 60.785156 187.492188 60.671875 187.511719 60.558594 187.511719 " fill-opacity="1" fill-rule="nonzero"/></g><path fill="#ffffff" d="M 40.707031 187.953125 C 40.472656 187.953125 40.238281 187.863281 40.0625 187.683594 C 39.703125 187.328125 39.703125 186.746094 40.0625 186.390625 L 45.226562 181.222656 C 45.585938 180.863281 46.164062 180.863281 46.523438 181.222656 C 46.878906 181.578125 46.878906 182.15625 46.523438 182.515625 L 41.355469 187.683594 C 41.175781 187.863281 40.941406 187.953125 40.707031 187.953125 " fill-opacity="1" fill-rule="nonzero"/><path fill="#ffffff" d="M 40.671875 197.023438 C 40.433594 197.023438 40.203125 196.933594 40.023438 196.753906 C 39.664062 196.394531 39.664062 195.816406 40.023438 195.460938 L 49.746094 185.738281 C 50.101562 185.378906 50.683594 185.378906 51.039062 185.738281 C 51.394531 186.09375 51.394531 186.671875 51.039062 187.03125 L 41.316406 196.753906 C 41.136719 196.933594 40.902344 197.023438 40.671875 197.023438 " fill-opacity="1" fill-rule="nonzero"/><path fill="#ffffff" d="M 49.738281 196.984375 C 49.503906 196.984375 49.269531 196.898438 49.089844 196.71875 C 48.734375 196.359375 48.734375 195.78125 49.089844 195.425781 L 54.261719 190.253906 C 54.617188 189.894531 55.195312 189.894531 55.554688 190.253906 C 55.914062 190.613281 55.914062 191.191406 55.554688 191.546875 L 50.386719 196.71875 C 50.207031 196.898438 49.972656 196.984375 49.738281 196.984375 " fill-opacity="1" fill-rule="nonzero"/><path fill="#ffffff" d="M 94.421875 154.0625 L 94.417969 154.0625 C 82.894531 154.015625 82.71875 142.476562 82.71875 142.359375 C 82.714844 141.851562 83.121094 141.445312 83.628906 141.441406 C 84.085938 141.414062 84.546875 141.847656 84.546875 142.347656 C 84.550781 142.753906 84.730469 152.195312 94.425781 152.230469 C 94.933594 152.234375 95.339844 152.640625 95.339844 153.148438 C 95.335938 153.652344 94.925781 154.0625 94.421875 154.0625 " fill-opacity="1" fill-rule="nonzero"/><path fill="#ffffff" d="M 76.785156 154.507812 C 75.316406 154.507812 73.941406 155.078125 72.90625 156.113281 C 71.871094 157.152344 71.296875 158.527344 71.296875 159.992188 C 71.296875 161.457031 71.871094 162.835938 72.90625 163.871094 C 73.941406 164.90625 75.316406 165.476562 76.785156 165.476562 C 78.25 165.476562 79.625 164.90625 80.660156 163.871094 C 81.699219 162.835938 82.269531 161.457031 82.269531 159.992188 C 82.269531 158.527344 81.699219 157.152344 80.660156 156.113281 C 79.625 155.078125 78.25 154.507812 76.785156 154.507812 Z M 76.785156 167.308594 C 74.828125 167.308594 72.992188 166.546875 71.613281 165.164062 C 70.230469 163.78125 69.46875 161.945312 69.46875 159.992188 C 69.46875 158.039062 70.230469 156.199219 71.613281 154.820312 C 72.992188 153.4375 74.828125 152.675781 76.785156 152.675781 C 78.738281 152.675781 80.574219 153.4375 81.957031 154.820312 C 83.339844 156.199219 84.101562 158.039062 84.101562 159.992188 C 84.101562 161.945312 83.339844 163.78125 81.957031 165.164062 C 80.574219 166.546875 78.738281 167.308594 76.785156 167.308594 " fill-opacity="1" fill-rule="nonzero"/><path fill="#ffffff" d="M 78.179688 160.824219 L 75.941406 160.824219 L 75.941406 162.316406 L 78.179688 162.316406 C 78.386719 162.316406 78.5625 162.242188 78.707031 162.097656 C 78.851562 161.953125 78.925781 161.773438 78.925781 161.570312 C 78.925781 161.363281 78.851562 161.1875 78.707031 161.042969 C 78.5625 160.894531 78.386719 160.824219 78.179688 160.824219 Z M 78.179688 160.824219 " fill-opacity="1" fill-rule="nonzero"/><path fill="#ffffff" d="M 78.179688 157.835938 L 75.941406 157.835938 L 75.941406 159.332031 L 78.179688 159.332031 C 78.386719 159.332031 78.5625 159.257812 78.707031 159.113281 C 78.851562 158.964844 78.925781 158.789062 78.925781 158.582031 C 78.925781 158.378906 78.851562 158.203125 78.707031 158.054688 C 78.5625 157.910156 78.386719 157.835938 78.179688 157.835938 Z M 78.179688 157.835938 " fill-opacity="1" fill-rule="nonzero"/><path fill="#ffffff" d="M 76.6875 152.613281 C 76.195312 152.613281 75.710938 152.660156 75.230469 152.757812 C 74.75 152.851562 74.28125 152.992188 73.832031 153.179688 C 73.378906 153.367188 72.949219 153.597656 72.539062 153.871094 C 72.132812 154.144531 71.753906 154.453125 71.410156 154.800781 C 71.0625 155.144531 70.753906 155.523438 70.480469 155.929688 C 70.207031 156.335938 69.980469 156.769531 69.792969 157.21875 C 69.605469 157.671875 69.460938 158.140625 69.367188 158.621094 C 69.269531 159.101562 69.222656 159.585938 69.222656 160.078125 C 69.222656 160.566406 69.269531 161.050781 69.367188 161.53125 C 69.460938 162.011719 69.605469 162.480469 69.792969 162.933594 C 69.980469 163.386719 70.207031 163.816406 70.480469 164.222656 C 70.753906 164.628906 71.0625 165.007812 71.410156 165.355469 C 71.753906 165.699219 72.132812 166.011719 72.539062 166.28125 C 72.949219 166.554688 73.378906 166.785156 73.832031 166.972656 C 74.28125 167.160156 74.75 167.300781 75.230469 167.398438 C 75.710938 167.492188 76.195312 167.539062 76.6875 167.539062 C 77.175781 167.539062 77.660156 167.492188 78.140625 167.398438 C 78.625 167.300781 79.089844 167.160156 79.542969 166.972656 C 79.996094 166.785156 80.425781 166.554688 80.832031 166.28125 C 81.242188 166.011719 81.617188 165.699219 81.964844 165.355469 C 82.308594 165.007812 82.621094 164.628906 82.890625 164.222656 C 83.164062 163.816406 83.394531 163.386719 83.582031 162.933594 C 83.769531 162.480469 83.910156 162.011719 84.007812 161.53125 C 84.101562 161.050781 84.148438 160.566406 84.148438 160.078125 C 84.148438 159.585938 84.101562 159.101562 84.007812 158.621094 C 83.910156 158.140625 83.769531 157.671875 83.582031 157.21875 C 83.394531 156.769531 83.164062 156.335938 82.890625 155.929688 C 82.621094 155.523438 82.308594 155.144531 81.964844 154.800781 C 81.617188 154.453125 81.242188 154.144531 80.832031 153.871094 C 80.425781 153.597656 79.996094 153.367188 79.542969 153.179688 C 79.089844 152.992188 78.625 152.851562 78.140625 152.757812 C 77.660156 152.660156 77.175781 152.613281 76.6875 152.613281 Z M 80.417969 161.570312 C 80.417969 161.867188 80.359375 162.152344 80.246094 162.425781 C 80.132812 162.699219 79.972656 162.941406 79.761719 163.152344 C 79.550781 163.363281 79.308594 163.523438 79.035156 163.636719 C 78.761719 163.75 78.476562 163.808594 78.179688 163.808594 L 77.433594 163.808594 C 77.433594 164.015625 77.359375 164.191406 77.214844 164.335938 C 77.070312 164.480469 76.890625 164.554688 76.6875 164.554688 C 76.480469 164.554688 76.304688 164.480469 76.160156 164.335938 C 76.011719 164.191406 75.941406 164.015625 75.941406 163.808594 L 73.699219 163.808594 C 73.496094 163.808594 73.320312 163.734375 73.171875 163.589844 C 73.027344 163.445312 72.953125 163.269531 72.953125 163.0625 C 72.953125 162.855469 73.027344 162.679688 73.171875 162.535156 C 73.320312 162.386719 73.496094 162.316406 73.699219 162.316406 L 74.449219 162.316406 L 74.449219 160.824219 L 73.699219 160.824219 C 73.496094 160.824219 73.320312 160.75 73.171875 160.605469 C 73.027344 160.457031 72.953125 160.28125 72.953125 160.078125 C 72.953125 159.871094 73.027344 159.695312 73.171875 159.550781 C 73.320312 159.402344 73.496094 159.332031 73.699219 159.332031 L 74.449219 159.332031 L 74.449219 157.835938 L 73.699219 157.835938 C 73.496094 157.835938 73.320312 157.765625 73.171875 157.617188 C 73.027344 157.472656 72.953125 157.296875 72.953125 157.089844 C 72.953125 156.886719 73.027344 156.710938 73.171875 156.5625 C 73.320312 156.417969 73.496094 156.34375 73.699219 156.34375 L 75.941406 156.34375 C 75.941406 156.140625 76.011719 155.960938 76.160156 155.816406 C 76.304688 155.671875 76.480469 155.597656 76.6875 155.597656 C 76.890625 155.597656 77.070312 155.671875 77.214844 155.816406 C 77.359375 155.960938 77.433594 156.140625 77.433594 156.34375 L 78.179688 156.34375 C 78.621094 156.347656 79.027344 156.464844 79.394531 156.707031 C 79.765625 156.949219 80.039062 157.269531 80.21875 157.671875 C 80.398438 158.074219 80.453125 158.492188 80.386719 158.929688 C 80.320312 159.367188 80.136719 159.746094 79.84375 160.078125 C 80.226562 160.5 80.417969 161 80.417969 161.570312 Z M 80.417969 161.570312 " fill-opacity="1" fill-rule="nonzero"/><g clip-path="url(#d12cb11ca1)"><path fill="#ffffff" d="M 76.6875 149.628906 C 76 149.628906 75.320312 149.695312 74.648438 149.828125 C 73.976562 149.960938 73.320312 150.160156 72.6875 150.421875 C 72.054688 150.6875 71.453125 151.007812 70.882812 151.390625 C 70.3125 151.769531 69.78125 152.203125 69.296875 152.6875 C 68.8125 153.171875 68.378906 153.699219 68 154.273438 C 67.617188 154.84375 67.296875 155.445312 67.03125 156.078125 C 66.769531 156.710938 66.574219 157.367188 66.4375 158.039062 C 66.304688 158.710938 66.238281 159.390625 66.238281 160.078125 C 66.238281 160.761719 66.304688 161.441406 66.4375 162.113281 C 66.574219 162.789062 66.769531 163.441406 67.03125 164.074219 C 67.296875 164.710938 67.617188 165.3125 68 165.882812 C 68.378906 166.453125 68.8125 166.980469 69.296875 167.464844 C 69.78125 167.949219 70.3125 168.382812 70.882812 168.765625 C 71.453125 169.144531 72.054688 169.46875 72.6875 169.730469 C 73.320312 169.992188 73.976562 170.191406 74.648438 170.324219 C 75.320312 170.457031 76 170.523438 76.6875 170.523438 C 77.371094 170.523438 78.050781 170.457031 78.726562 170.324219 C 79.398438 170.191406 80.050781 169.992188 80.683594 169.730469 C 81.320312 169.46875 81.921875 169.144531 82.492188 168.765625 C 83.0625 168.382812 83.589844 167.949219 84.074219 167.464844 C 84.558594 166.980469 84.992188 166.453125 85.375 165.882812 C 85.753906 165.3125 86.078125 164.710938 86.339844 164.074219 C 86.601562 163.441406 86.800781 162.789062 86.933594 162.113281 C 87.066406 161.441406 87.136719 160.761719 87.136719 160.078125 C 87.136719 159.390625 87.066406 158.710938 86.933594 158.039062 C 86.800781 157.367188 86.601562 156.710938 86.339844 156.078125 C 86.078125 155.445312 85.753906 154.84375 85.375 154.273438 C 84.992188 153.699219 84.558594 153.171875 84.074219 152.6875 C 83.589844 152.203125 83.0625 151.769531 82.492188 151.390625 C 81.921875 151.007812 81.320312 150.6875 80.683594 150.421875 C 80.050781 150.160156 79.398438 149.960938 78.726562 149.828125 C 78.050781 149.695312 77.371094 149.628906 76.6875 149.628906 Z M 76.6875 169.03125 C 76.097656 169.03125 75.515625 168.976562 74.9375 168.859375 C 74.363281 168.746094 73.800781 168.574219 73.257812 168.351562 C 72.714844 168.125 72.199219 167.851562 71.710938 167.523438 C 71.222656 167.195312 70.769531 166.824219 70.351562 166.410156 C 69.9375 165.992188 69.566406 165.542969 69.238281 165.050781 C 68.914062 164.5625 68.636719 164.046875 68.410156 163.503906 C 68.1875 162.960938 68.015625 162.402344 67.902344 161.824219 C 67.789062 161.246094 67.730469 160.664062 67.730469 160.078125 C 67.730469 159.488281 67.789062 158.90625 67.902344 158.328125 C 68.015625 157.753906 68.1875 157.191406 68.410156 156.648438 C 68.636719 156.105469 68.914062 155.589844 69.238281 155.101562 C 69.566406 154.613281 69.9375 154.160156 70.351562 153.742188 C 70.769531 153.328125 71.222656 152.957031 71.710938 152.628906 C 72.199219 152.304688 72.714844 152.027344 73.257812 151.800781 C 73.800781 151.578125 74.363281 151.40625 74.9375 151.292969 C 75.515625 151.179688 76.097656 151.121094 76.6875 151.121094 C 77.273438 151.121094 77.855469 151.179688 78.433594 151.292969 C 79.011719 151.40625 79.570312 151.578125 80.113281 151.800781 C 80.65625 152.027344 81.171875 152.304688 81.664062 152.628906 C 82.152344 152.957031 82.601562 153.328125 83.019531 153.742188 C 83.433594 154.160156 83.804688 154.613281 84.132812 155.101562 C 84.460938 155.589844 84.734375 156.105469 84.960938 156.648438 C 85.1875 157.191406 85.355469 157.753906 85.46875 158.328125 C 85.585938 158.90625 85.640625 159.488281 85.640625 160.078125 C 85.640625 160.664062 85.585938 161.246094 85.46875 161.824219 C 85.355469 162.402344 85.1875 162.960938 84.960938 163.503906 C 84.734375 164.046875 84.460938 164.5625 84.132812 165.050781 C 83.804688 165.542969 83.433594 165.992188 83.019531 166.410156 C 82.601562 166.824219 82.152344 167.195312 81.664062 167.523438 C 81.171875 167.851562 80.65625 168.125 80.113281 168.351562 C 79.570312 168.574219 79.011719 168.746094 78.433594 168.859375 C 77.855469 168.976562 77.273438 169.03125 76.6875 169.03125 Z M 76.6875 169.03125 " fill-opacity="1" fill-rule="nonzero"/></g><g fill="#ffffff" fill-opacity="1"><g transform="translate(143.969467, 176.905712)"><g><path d="M 15.09375 0 L 12.734375 0 L 12.734375 -10.328125 L 3.171875 -10.328125 L 3.171875 0 L 0.84375 0 L 0.84375 -22.296875 L 3.171875 -22.296875 L 3.171875 -12.328125 L 12.734375 -12.328125 L 12.734375 -22.296875 L 15.09375 -22.296875 Z M 15.09375 0 "/></g></g></g><g fill="#ffffff" fill-opacity="1"><g transform="translate(163.071646, 176.905712)"><g><path d="M -0.03125 -4.3125 C -0.03125 -5.3125 0.21875 -6.148438 0.71875 -6.828125 C 1.21875 -7.503906 1.875 -8.039062 2.6875 -8.4375 C 3.5 -8.832031 4.429688 -9.113281 5.484375 -9.28125 C 6.546875 -9.457031 7.625 -9.546875 8.71875 -9.546875 C 9.132812 -9.546875 9.507812 -9.539062 9.84375 -9.53125 C 10.1875 -9.519531 10.507812 -9.503906 10.8125 -9.484375 C 11.113281 -9.460938 11.414062 -9.429688 11.71875 -9.390625 C 12.03125 -9.359375 12.367188 -9.320312 12.734375 -9.28125 L 12.734375 -10.421875 C 12.734375 -11.203125 12.5625 -11.84375 12.21875 -12.34375 C 11.882812 -12.84375 11.472656 -13.238281 10.984375 -13.53125 C 10.492188 -13.820312 9.976562 -14.023438 9.4375 -14.140625 C 8.90625 -14.265625 8.453125 -14.328125 8.078125 -14.328125 C 6.898438 -14.328125 5.804688 -14.164062 4.796875 -13.84375 C 3.796875 -13.519531 2.863281 -13.09375 2 -12.5625 L 0.9375 -14.328125 C 1.894531 -14.898438 2.96875 -15.367188 4.15625 -15.734375 C 5.351562 -16.109375 6.660156 -16.296875 8.078125 -16.296875 C 8.941406 -16.296875 9.789062 -16.1875 10.625 -15.96875 C 11.46875 -15.75 12.222656 -15.40625 12.890625 -14.9375 C 13.554688 -14.476562 14.085938 -13.875 14.484375 -13.125 C 14.890625 -12.375 15.09375 -11.472656 15.09375 -10.421875 L 15.09375 0 L 12.734375 0 L 12.734375 -2.671875 C 12.316406 -2.148438 11.847656 -1.695312 11.328125 -1.3125 C 10.816406 -0.925781 10.273438 -0.609375 9.703125 -0.359375 C 9.140625 -0.117188 8.570312 0.0625 8 0.1875 C 7.425781 0.320312 6.882812 0.390625 6.375 0.390625 C 4.269531 0.390625 2.675781 -0.0078125 1.59375 -0.8125 C 0.507812 -1.625 -0.03125 -2.789062 -0.03125 -4.3125 Z M 6.375 -1.609375 C 7.351562 -1.609375 8.234375 -1.753906 9.015625 -2.046875 C 9.796875 -2.335938 10.457031 -2.695312 11 -3.125 C 11.550781 -3.5625 11.976562 -4.023438 12.28125 -4.515625 C 12.582031 -5.003906 12.734375 -5.445312 12.734375 -5.84375 L 12.734375 -7.34375 C 11.972656 -7.457031 11.238281 -7.519531 10.53125 -7.53125 C 9.832031 -7.539062 9.226562 -7.546875 8.71875 -7.546875 C 7.875 -7.546875 7.0625 -7.488281 6.28125 -7.375 C 5.5 -7.269531 4.816406 -7.085938 4.234375 -6.828125 C 3.648438 -6.566406 3.179688 -6.234375 2.828125 -5.828125 C 2.484375 -5.421875 2.3125 -4.914062 2.3125 -4.3125 C 2.3125 -3.632812 2.632812 -3.015625 3.28125 -2.453125 C 3.9375 -1.890625 4.96875 -1.609375 6.375 -1.609375 Z M 6.375 -1.609375 "/></g></g></g><g fill="#ffffff" fill-opacity="1"><g transform="translate(182.173826, 176.905712)"><g><path d="M 15.5 -4.40625 C 15.5 -3.476562 15.265625 -2.703125 14.796875 -2.078125 C 14.328125 -1.460938 13.722656 -0.972656 12.984375 -0.609375 C 12.253906 -0.242188 11.4375 0.0078125 10.53125 0.15625 C 9.625 0.3125 8.738281 0.390625 7.875 0.390625 C 6.425781 0.390625 4.984375 0.179688 3.546875 -0.234375 C 2.117188 -0.660156 0.878906 -1.210938 -0.171875 -1.890625 L 0.875 -3.90625 C 2.039062 -3.164062 3.191406 -2.597656 4.328125 -2.203125 C 5.472656 -1.804688 6.65625 -1.609375 7.875 -1.609375 C 11.394531 -1.609375 13.15625 -2.519531 13.15625 -4.34375 C 13.15625 -4.78125 13.007812 -5.140625 12.71875 -5.421875 C 12.425781 -5.703125 12.035156 -5.929688 11.546875 -6.109375 C 11.054688 -6.285156 10.492188 -6.425781 9.859375 -6.53125 C 9.234375 -6.632812 8.570312 -6.726562 7.875 -6.8125 C 6.988281 -6.9375 6.101562 -7.082031 5.21875 -7.25 C 4.34375 -7.425781 3.546875 -7.6875 2.828125 -8.03125 C 2.109375 -8.375 1.523438 -8.828125 1.078125 -9.390625 C 0.640625 -9.960938 0.421875 -10.71875 0.421875 -11.65625 C 0.421875 -12.457031 0.625 -13.144531 1.03125 -13.71875 C 1.4375 -14.300781 1.976562 -14.785156 2.65625 -15.171875 C 3.332031 -15.554688 4.125 -15.835938 5.03125 -16.015625 C 5.945312 -16.203125 6.894531 -16.296875 7.875 -16.296875 C 9.28125 -16.296875 10.535156 -16.132812 11.640625 -15.8125 C 12.742188 -15.488281 13.738281 -15.023438 14.625 -14.421875 L 13.6875 -12.59375 C 12.78125 -13.226562 11.859375 -13.675781 10.921875 -13.9375 C 9.984375 -14.195312 8.96875 -14.328125 7.875 -14.328125 C 7.382812 -14.328125 6.835938 -14.28125 6.234375 -14.1875 C 5.640625 -14.101562 5.085938 -13.957031 4.578125 -13.75 C 4.066406 -13.539062 3.632812 -13.265625 3.28125 -12.921875 C 2.9375 -12.585938 2.765625 -12.164062 2.765625 -11.65625 C 2.765625 -11.207031 2.910156 -10.847656 3.203125 -10.578125 C 3.492188 -10.316406 3.882812 -10.097656 4.375 -9.921875 C 4.863281 -9.742188 5.421875 -9.601562 6.046875 -9.5 C 6.679688 -9.394531 7.347656 -9.300781 8.046875 -9.21875 C 8.910156 -9.09375 9.785156 -8.941406 10.671875 -8.765625 C 11.554688 -8.597656 12.359375 -8.347656 13.078125 -8.015625 C 13.804688 -7.679688 14.390625 -7.226562 14.828125 -6.65625 C 15.273438 -6.09375 15.5 -5.34375 15.5 -4.40625 Z M 15.5 -4.40625 "/></g></g></g><g fill="#ffffff" fill-opacity="1"><g transform="translate(201.276005, 176.905712)"><g><path d="M 15.09375 0 L 12.734375 0 L 12.734375 -9.828125 C 12.734375 -11.253906 12.425781 -12.359375 11.8125 -13.140625 C 11.195312 -13.929688 10.195312 -14.328125 8.8125 -14.328125 C 7.945312 -14.328125 7.164062 -14.125 6.46875 -13.71875 C 5.769531 -13.320312 5.175781 -12.789062 4.6875 -12.125 C 4.195312 -11.457031 3.820312 -10.691406 3.5625 -9.828125 C 3.300781 -8.972656 3.171875 -8.078125 3.171875 -7.140625 L 3.171875 0 L 0.84375 0 L 0.84375 -22.296875 L 3.171875 -22.296875 L 3.171875 -11.921875 C 4.304688 -14.835938 6.320312 -16.296875 9.21875 -16.296875 C 13.132812 -16.296875 15.09375 -14.140625 15.09375 -9.828125 Z M 15.09375 0 "/></g></g></g><g fill="#ffffff" fill-opacity="1"><g transform="translate(220.378184, 176.905712)"><g/></g></g><g fill="#ffffff" fill-opacity="1"><g transform="translate(239.480363, 176.905712)"><g><path d="M 15.09375 0 L 12.734375 0 L 12.734375 -18.578125 L 8.78125 -7.078125 L 7.109375 -7.078125 L 3.171875 -18.578125 L 3.171875 0 L 0.84375 0 L 0.84375 -22.296875 L 3.875 -22.296875 L 7.953125 -10.640625 L 12.046875 -22.296875 L 15.09375 -22.296875 Z M 15.09375 0 "/></g></g></g><g fill="#ffffff" fill-opacity="1"><g transform="translate(258.582543, 176.905712)"><g><path d="M 9.546875 -19.109375 L 6.375 -19.109375 L 6.375 -22.296875 L 9.546875 -22.296875 Z M 12.734375 0 L 3.171875 0 L 3.171875 -2 L 6.78125 -2 L 6.78125 -13.921875 L 3.171875 -13.921875 L 3.171875 -15.921875 L 9.140625 -15.921875 L 9.140625 -2 L 12.734375 -2 Z M 12.734375 0 "/></g></g></g><g fill="#ffffff" fill-opacity="1"><g transform="translate(277.684722, 176.905712)"><g><path d="M 15.09375 0 L 12.734375 0 L 12.734375 -9.828125 C 12.734375 -11.253906 12.425781 -12.359375 11.8125 -13.140625 C 11.195312 -13.929688 10.195312 -14.328125 8.8125 -14.328125 C 7.945312 -14.328125 7.164062 -14.125 6.46875 -13.71875 C 5.769531 -13.320312 5.175781 -12.789062 4.6875 -12.125 C 4.195312 -11.457031 3.820312 -10.691406 3.5625 -9.828125 C 3.300781 -8.972656 3.171875 -8.078125 3.171875 -7.140625 L 3.171875 0 L 0.84375 0 L 0.84375 -15.921875 L 3.171875 -15.921875 L 3.171875 -11.921875 C 4.304688 -14.835938 6.320312 -16.296875 9.21875 -16.296875 C 13.132812 -16.296875 15.09375 -14.140625 15.09375 -9.828125 Z M 15.09375 0 "/></g></g></g><g fill="#ffffff" fill-opacity="1"><g transform="translate(296.786901, 176.905712)"><g><path d="M 2.34375 -7.140625 C 2.507812 -5.453125 3.125 -4.109375 4.1875 -3.109375 C 5.25 -2.109375 6.628906 -1.609375 8.328125 -1.609375 C 9.523438 -1.609375 10.585938 -1.851562 11.515625 -2.34375 C 12.453125 -2.832031 13.15625 -3.441406 13.625 -4.171875 L 15.265625 -3.046875 C 14.460938 -1.929688 13.507812 -1.078125 12.40625 -0.484375 C 11.300781 0.0976562 9.941406 0.390625 8.328125 0.390625 C 7.097656 0.390625 5.96875 0.1875 4.9375 -0.21875 C 3.914062 -0.632812 3.03125 -1.207031 2.28125 -1.9375 C 1.53125 -2.675781 0.953125 -3.550781 0.546875 -4.5625 C 0.140625 -5.570312 -0.0625 -6.703125 -0.0625 -7.953125 C -0.0625 -9.160156 0.117188 -10.269531 0.484375 -11.28125 C 0.859375 -12.300781 1.394531 -13.1875 2.09375 -13.9375 C 2.789062 -14.6875 3.640625 -15.265625 4.640625 -15.671875 C 5.648438 -16.085938 6.773438 -16.296875 8.015625 -16.296875 C 9.367188 -16.296875 10.550781 -16.066406 11.5625 -15.609375 C 12.582031 -15.160156 13.429688 -14.535156 14.109375 -13.734375 C 14.785156 -12.929688 15.285156 -11.96875 15.609375 -10.84375 C 15.929688 -9.726562 16.09375 -8.492188 16.09375 -7.140625 Z M 13.625 -9.140625 C 13.363281 -10.890625 12.726562 -12.191406 11.71875 -13.046875 C 10.71875 -13.898438 9.484375 -14.328125 8.015625 -14.328125 C 7.265625 -14.328125 6.566406 -14.203125 5.921875 -13.953125 C 5.285156 -13.710938 4.722656 -13.363281 4.234375 -12.90625 C 3.742188 -12.445312 3.332031 -11.894531 3 -11.25 C 2.675781 -10.601562 2.46875 -9.898438 2.375 -9.140625 Z M 13.625 -9.140625 "/></g></g></g><g fill="#ffffff" fill-opacity="1"><g transform="translate(315.88908, 176.905712)"><g><path d="M 15.0625 -13.6875 C 14.21875 -14.113281 13.210938 -14.328125 12.046875 -14.328125 C 11.085938 -14.328125 10.234375 -14.117188 9.484375 -13.703125 C 8.734375 -13.296875 8.09375 -12.757812 7.5625 -12.09375 C 7.039062 -11.425781 6.640625 -10.660156 6.359375 -9.796875 C 6.085938 -8.941406 5.953125 -8.054688 5.953125 -7.140625 L 5.953125 -2 L 9.546875 -2 L 9.546875 0 L 0 0 L 0 -2 L 3.609375 -2 L 3.609375 -13.921875 L 0 -13.921875 L 0 -15.921875 L 5.953125 -15.921875 L 5.953125 -11.921875 C 7.015625 -14.835938 9.046875 -16.296875 12.046875 -16.296875 C 12.859375 -16.296875 13.5625 -16.242188 14.15625 -16.140625 C 14.757812 -16.046875 15.316406 -15.867188 15.828125 -15.609375 Z M 15.0625 -13.6875 "/></g></g></g></svg>